<svg xmlns="http://www.w3.org/2000/svg" xmlns:xlink="http://www.w3.org/1999/xlink" contentStyleType="text/css" data-diagram-type="SEQUENCE" height="1292px" preserveAspectRatio="none" style="width:1425px;height:1292px;background:#FFFFFF;" version="1.1" viewBox="0 0 1425 1292" width="1425px" zoomAndPan="magnify"><defs/><g><g><title>CalorieTrackerCLI</title><rect fill="#FFFFFF" height="1081.4531" style="stroke:#181818;stroke-width:1;" width="10" x="384.1069" y="112.4297"/></g><g><title>CalorieTrackerController</title><rect fill="#FFFFFF" height="87.3984" style="stroke:#181818;stroke-width:1;" width="10" x="756.5068" y="199.8281"/></g><g><title>CalorieTrackerController</title><rect fill="#FFFFFF" height="87.3984" style="stroke:#181818;stroke-width:1;" width="10" x="756.5068" y="591.3594"/></g><g><title>CalorieTrackerController</title><rect fill="#FFFFFF" height="248.0625" style="stroke:#181818;stroke-width:1;" width="10" x="756.5068" y="880.5547"/></g><g><title>FoodDatabase</title><rect fill="#FFFFFF" height="29.1328" style="stroke:#181818;stroke-width:1;" width="10" x="1020.2241" y="228.9609"/></g><g><title>FoodDatabase</title><rect fill="#FFFFFF" height="29.1328" style="stroke:#181818;stroke-width:1;" width="10" x="1020.2241" y="620.4922"/></g><g><title>FoodDatabase</title><rect fill="#FFFFFF" height="29.1328" style="stroke:#181818;stroke-width:1;" width="10" x="1020.2241" y="1070.3516"/></g><g><title>CompositeFood</title><rect fill="#FFFFFF" height="131.5313" style="stroke:#181818;stroke-width:1;" width="10" x="1149.0532" y="909.6875"/></g><rect fill="none" height="863.5234" style="stroke:#000000;stroke-width:1.5;" width="1395.9199" x="10" y="302.2266"/><rect fill="none" height="381.7266" style="stroke:#000000;stroke-width:1.5;" width="1082.6597" x="20" y="470.6953"/><rect fill="none" height="292.3281" style="stroke:#000000;stroke-width:1.5;" width="1062.6597" x="30" y="553.0938"/><rect fill="none" height="88.3984" style="stroke:#000000;stroke-width:1.5;" width="737.064" x="658.856" y="924.6875"/><g><title>User</title><rect fill="#000000" fill-opacity="0.00000" height="1130.5859" width="8" x="54.9551" y="81.2969"/><line style="stroke:#181818;stroke-width:0.5;stroke-dasharray:5.0,5.0;" x1="58" x2="58" y1="81.2969" y2="1211.8828"/></g><g><title>CalorieTrackerCLI</title><rect fill="#000000" fill-opacity="0.00000" height="1130.5859" width="8" x="385.1069" y="81.2969"/><line style="stroke:#181818;stroke-width:0.5;stroke-dasharray:5.0,5.0;" x1="388.1904" x2="388.1904" y1="81.2969" y2="1211.8828"/></g><g><title>CalorieTrackerController</title><rect fill="#000000" fill-opacity="0.00000" height="1130.5859" width="8" x="757.5068" y="81.2969"/><line style="stroke:#181818;stroke-width:0.5;stroke-dasharray:5.0,5.0;" x1="760.856" x2="760.856" y1="81.2969" y2="1211.8828"/></g><g><title>FoodDatabase</title><rect fill="#000000" fill-opacity="0.00000" height="1130.5859" width="8" x="1021.2241" y="81.2969"/><line style="stroke:#181818;stroke-width:0.5;stroke-dasharray:5.0,5.0;" x1="1024.7886" x2="1024.7886" y1="81.2969" y2="1211.8828"/></g><g><title>CompositeFood</title><rect fill="#000000" fill-opacity="0.00000" height="1130.5859" width="8" x="1150.0532" y="81.2969"/><line style="stroke:#181818;stroke-width:0.5;stroke-dasharray:5.0,5.0;" x1="1153.6597" x2="1153.6597" y1="81.2969" y2="1211.8828"/></g><g><title>Food</title><rect fill="#000000" fill-opacity="0.00000" height="1130.5859" width="8" x="1391.9199" y="81.2969"/><line style="stroke:#181818;stroke-width:0.5;stroke-dasharray:5.0,5.0;" x1="1395.8848" x2="1395.8848" y1="81.2969" y2="1211.8828"/></g><g class="participant participant-head" data-participant="User"><text fill="#000000" font-family="sans-serif" font-size="14" lengthAdjust="spacing" textLength="31.9102" x="40" y="77.9951">User</text><ellipse cx="58.9551" cy="13.5" fill="#E2E2F0" rx="8" ry="8" style="stroke:#181818;stroke-width:0.5;"/><path d="M58.9551,21.5 L58.9551,48.5 M45.9551,29.5 L71.9551,29.5 M58.9551,48.5 L45.9551,63.5 M58.9551,48.5 L71.9551,63.5" fill="none" style="stroke:#181818;stroke-width:0.5;"/></g><g class="participant participant-tail" data-participant="User"><text fill="#000000" font-family="sans-serif" font-size="14" lengthAdjust="spacing" textLength="31.9102" x="40" y="1223.8779">User</text><ellipse cx="58.9551" cy="1235.6797" fill="#E2E2F0" rx="8" ry="8" style="stroke:#181818;stroke-width:0.5;"/><path d="M58.9551,1243.6797 L58.9551,1270.6797 M45.9551,1251.6797 L71.9551,1251.6797 M58.9551,1270.6797 L45.9551,1285.6797 M58.9551,1270.6797 L71.9551,1285.6797" fill="none" style="stroke:#181818;stroke-width:0.5;"/></g><g class="participant participant-head" data-participant="CLI"><rect fill="#E2E2F0" height="30.2969" rx="2.5" ry="2.5" style="stroke:#181818;stroke-width:0.5;" width="137.833" x="320.1904" y="50"/><text fill="#000000" font-family="sans-serif" font-size="14" lengthAdjust="spacing" textLength="123.833" x="327.1904" y="69.9951">CalorieTrackerCLI</text></g><g class="participant participant-tail" data-participant="CLI"><rect fill="#E2E2F0" height="30.2969" rx="2.5" ry="2.5" style="stroke:#181818;stroke-width:0.5;" width="137.833" x="320.1904" y="1210.8828"/><text fill="#000000" font-family="sans-serif" font-size="14" lengthAdjust="spacing" textLength="123.833" x="327.1904" y="1230.8779">CalorieTrackerCLI</text></g><g class="participant participant-head" data-participant="Controller"><rect fill="#E2E2F0" height="30.2969" rx="2.5" ry="2.5" style="stroke:#181818;stroke-width:0.5;" width="185.3018" x="668.856" y="50"/><text fill="#000000" font-family="sans-serif" font-size="14" lengthAdjust="spacing" textLength="171.3018" x="675.856" y="69.9951">CalorieTrackerController</text></g><g class="participant participant-tail" data-participant="Controller"><rect fill="#E2E2F0" height="30.2969" rx="2.5" ry="2.5" style="stroke:#181818;stroke-width:0.5;" width="185.3018" x="668.856" y="1210.8828"/><text fill="#000000" font-family="sans-serif" font-size="14" lengthAdjust="spacing" textLength="171.3018" x="675.856" y="1230.8779">CalorieTrackerController</text></g><g class="participant participant-head" data-participant="FoodDB"><rect fill="#E2E2F0" height="30.2969" rx="2.5" ry="2.5" style="stroke:#181818;stroke-width:0.5;" width="114.8711" x="967.7886" y="50"/><text fill="#000000" font-family="sans-serif" font-size="14" lengthAdjust="spacing" textLength="100.8711" x="974.7886" y="69.9951">FoodDatabase</text></g><g class="participant participant-tail" data-participant="FoodDB"><rect fill="#E2E2F0" height="30.2969" rx="2.5" ry="2.5" style="stroke:#181818;stroke-width:0.5;" width="114.8711" x="967.7886" y="1210.8828"/><text fill="#000000" font-family="sans-serif" font-size="14" lengthAdjust="spacing" textLength="100.8711" x="974.7886" y="1230.8779">FoodDatabase</text></g><g class="participant participant-head" data-participant="CompositeFood"><rect fill="#E2E2F0" height="30.2969" rx="2.5" ry="2.5" style="stroke:#181818;stroke-width:0.5;" width="122.7871" x="1092.6597" y="50"/><text fill="#000000" font-family="sans-serif" font-size="14" lengthAdjust="spacing" textLength="108.7871" x="1099.6597" y="69.9951">CompositeFood</text></g><g class="participant participant-tail" data-participant="CompositeFood"><rect fill="#E2E2F0" height="30.2969" rx="2.5" ry="2.5" style="stroke:#181818;stroke-width:0.5;" width="122.7871" x="1092.6597" y="1210.8828"/><text fill="#000000" font-family="sans-serif" font-size="14" lengthAdjust="spacing" textLength="108.7871" x="1099.6597" y="1230.8779">CompositeFood</text></g><g class="participant participant-head" data-participant="Food"><rect fill="#E2E2F0" height="30.2969" rx="2.5" ry="2.5" style="stroke:#181818;stroke-width:0.5;" width="48.0703" x="1371.8848" y="50"/><text fill="#000000" font-family="sans-serif" font-size="14" lengthAdjust="spacing" textLength="34.0703" x="1378.8848" y="69.9951">Food</text></g><g class="participant participant-tail" data-participant="Food"><rect fill="#E2E2F0" height="30.2969" rx="2.5" ry="2.5" style="stroke:#181818;stroke-width:0.5;" width="48.0703" x="1371.8848" y="1210.8828"/><text fill="#000000" font-family="sans-serif" font-size="14" lengthAdjust="spacing" textLength="34.0703" x="1378.8848" y="1230.8779">Food</text></g><g><title>CalorieTrackerCLI</title><rect fill="#FFFFFF" height="1081.4531" style="stroke:#181818;stroke-width:1;" width="10" x="384.1069" y="112.4297"/></g><g><title>CalorieTrackerController</title><rect fill="#FFFFFF" height="87.3984" style="stroke:#181818;stroke-width:1;" width="10" x="756.5068" y="199.8281"/></g><g><title>CalorieTrackerController</title><rect fill="#FFFFFF" height="87.3984" style="stroke:#181818;stroke-width:1;" width="10" x="756.5068" y="591.3594"/></g><g><title>CalorieTrackerController</title><rect fill="#FFFFFF" height="248.0625" style="stroke:#181818;stroke-width:1;" width="10" x="756.5068" y="880.5547"/></g><g><title>FoodDatabase</title><rect fill="#FFFFFF" height="29.1328" style="stroke:#181818;stroke-width:1;" width="10" x="1020.2241" y="228.9609"/></g><g><title>FoodDatabase</title><rect fill="#FFFFFF" height="29.1328" style="stroke:#181818;stroke-width:1;" width="10" x="1020.2241" y="620.4922"/></g><g><title>FoodDatabase</title><rect fill="#FFFFFF" height="29.1328" style="stroke:#181818;stroke-width:1;" width="10" x="1020.2241" y="1070.3516"/></g><g><title>CompositeFood</title><rect fill="#FFFFFF" height="131.5313" style="stroke:#181818;stroke-width:1;" width="10" x="1149.0532" y="909.6875"/></g><g class="message" data-participant-1="User" data-participant-2="CLI"><polygon fill="#181818" points="372.1069,108.4297,382.1069,112.4297,372.1069,116.4297,376.1069,112.4297" style="stroke:#181818;stroke-width:1;"/><line style="stroke:#181818;stroke-width:1;" x1="58.9551" x2="378.1069" y1="112.4297" y2="112.4297"/><text fill="#000000" font-family="sans-serif" font-size="13" lengthAdjust="spacing" textLength="152.7119" x="65.9551" y="107.3638">createCompositeFood()</text></g><g class="message" data-participant-1="CLI" data-participant-2="User"><polygon fill="#181818" points="69.9551,137.5625,59.9551,141.5625,69.9551,145.5625,65.9551,141.5625" style="stroke:#181818;stroke-width:1;"/><line style="stroke:#181818;stroke-width:1;stroke-dasharray:2.0,2.0;" x1="63.9551" x2="383.1069" y1="141.5625" y2="141.5625"/><text fill="#000000" font-family="sans-serif" font-size="13" lengthAdjust="spacing" textLength="143.438" x="75.9551" y="136.4966">prompt for food name</text></g><g class="message" data-participant-1="User" data-participant-2="CLI"><polygon fill="#181818" points="372.1069,166.6953,382.1069,170.6953,372.1069,174.6953,376.1069,170.6953" style="stroke:#181818;stroke-width:1;"/><line style="stroke:#181818;stroke-width:1;" x1="58.9551" x2="378.1069" y1="170.6953" y2="170.6953"/><text fill="#000000" font-family="sans-serif" font-size="13" lengthAdjust="spacing" textLength="108.5449" x="65.9551" y="165.6294">enter food name</text></g><g class="message" data-participant-1="CLI" data-participant-2="Controller"><polygon fill="#181818" points="744.5068,195.8281,754.5068,199.8281,744.5068,203.8281,748.5068,199.8281" style="stroke:#181818;stroke-width:1;"/><line style="stroke:#181818;stroke-width:1;" x1="394.1069" x2="750.5068" y1="199.8281" y2="199.8281"/><text fill="#000000" font-family="sans-serif" font-size="13" lengthAdjust="spacing" textLength="154.959" x="401.1069" y="194.7622">getFoodByName(name)</text></g><g class="message" data-participant-1="Controller" data-participant-2="FoodDB"><polygon fill="#181818" points="1008.2241,224.9609,1018.2241,228.9609,1008.2241,232.9609,1012.2241,228.9609" style="stroke:#181818;stroke-width:1;"/><line style="stroke:#181818;stroke-width:1;" x1="766.5068" x2="1014.2241" y1="228.9609" y2="228.9609"/><text fill="#000000" font-family="sans-serif" font-size="13" lengthAdjust="spacing" textLength="154.959" x="773.5068" y="223.895">getFoodByName(name)</text></g><g class="message" data-participant-1="FoodDB" data-participant-2="Controller"><polygon fill="#181818" points="777.5068,254.0938,767.5068,258.0938,777.5068,262.0938,773.5068,258.0938" style="stroke:#181818;stroke-width:1;"/><line style="stroke:#181818;stroke-width:1;stroke-dasharray:2.0,2.0;" x1="771.5068" x2="1024.2241" y1="258.0938" y2="258.0938"/><text fill="#000000" font-family="sans-serif" font-size="13" lengthAdjust="spacing" textLength="108.3862" x="783.5068" y="253.0278">Optional&lt;Food&gt;</text></g><g class="message" data-participant-1="Controller" data-participant-2="CLI"><polygon fill="#181818" points="405.1069,283.2266,395.1069,287.2266,405.1069,291.2266,401.1069,287.2266" style="stroke:#181818;stroke-width:1;"/><line style="stroke:#181818;stroke-width:1;stroke-dasharray:2.0,2.0;" x1="399.1069" x2="760.5068" y1="287.2266" y2="287.2266"/><text fill="#000000" font-family="sans-serif" font-size="13" lengthAdjust="spacing" textLength="85.5537" x="411.1069" y="282.1606">optional food</text></g><path d="M10,302.2266 L74.4429,302.2266 L74.4429,309.3594 L64.4429,319.3594 L10,319.3594 L10,302.2266" fill="#EEEEEE" style="stroke:#000000;stroke-width:1.5;"/><rect fill="none" height="863.5234" style="stroke:#000000;stroke-width:1.5;" width="1395.9199" x="10" y="302.2266"/><text fill="#000000" font-family="sans-serif" font-size="13" font-weight="bold" lengthAdjust="spacing" textLength="19.4429" x="25" y="315.2935">alt</text><text fill="#000000" font-family="sans-serif" font-size="11" font-weight="bold" lengthAdjust="spacing" textLength="128.7129" x="89.4429" y="314.437">[food already exists]</text><g class="message" data-participant-1="CLI" data-participant-2="User"><polygon fill="#181818" points="69.9551,336.4922,59.9551,340.4922,69.9551,344.4922,65.9551,340.4922" style="stroke:#181818;stroke-width:1;"/><line style="stroke:#181818;stroke-width:1;stroke-dasharray:2.0,2.0;" x1="63.9551" x2="383.1069" y1="340.4922" y2="340.4922"/><text fill="#000000" font-family="sans-serif" font-size="13" lengthAdjust="spacing" textLength="299.6221" x="75.9551" y="335.4263">display "A food with this name already exists"</text></g><line style="stroke:#000000;stroke-width:1;stroke-dasharray:2.0,2.0;" x1="10" x2="1405.9199" y1="349.4922" y2="349.4922"/><text fill="#000000" font-family="sans-serif" font-size="11" font-weight="bold" lengthAdjust="spacing" textLength="121.5156" x="15" y="359.7026">[food doesn't exist]</text><g class="message" data-participant-1="CLI" data-participant-2="User"><polygon fill="#181818" points="69.9551,380.4297,59.9551,384.4297,69.9551,388.4297,65.9551,384.4297" style="stroke:#181818;stroke-width:1;"/><line style="stroke:#181818;stroke-width:1;stroke-dasharray:2.0,2.0;" x1="63.9551" x2="383.1069" y1="384.4297" y2="384.4297"/><text fill="#000000" font-family="sans-serif" font-size="13" lengthAdjust="spacing" textLength="135.8779" x="75.9551" y="379.3638">prompt for keywords</text></g><g class="message" data-participant-1="User" data-participant-2="CLI"><polygon fill="#181818" points="372.1069,409.5625,382.1069,413.5625,372.1069,417.5625,376.1069,413.5625" style="stroke:#181818;stroke-width:1;"/><line style="stroke:#181818;stroke-width:1;" x1="58.9551" x2="378.1069" y1="413.5625" y2="413.5625"/><text fill="#000000" font-family="sans-serif" font-size="13" lengthAdjust="spacing" textLength="233.9937" x="65.9551" y="408.4966">enter keywords (comma-separated)</text></g><g class="message" data-participant-1="CLI" data-participant-2="CLI"><line style="stroke:#181818;stroke-width:1;" x1="394.1069" x2="436.1069" y1="442.6953" y2="442.6953"/><line style="stroke:#181818;stroke-width:1;" x1="436.1069" x2="436.1069" y1="442.6953" y2="455.6953"/><line style="stroke:#181818;stroke-width:1;" x1="395.1069" x2="436.1069" y1="455.6953" y2="455.6953"/><polygon fill="#181818" points="405.1069,451.6953,395.1069,455.6953,405.1069,459.6953,401.1069,455.6953" style="stroke:#181818;stroke-width:1;"/><text fill="#000000" font-family="sans-serif" font-size="13" lengthAdjust="spacing" textLength="219.1147" x="401.1069" y="437.6294">parse keywords into List&lt;String&gt;</text></g><path d="M20,470.6953 L96.624,470.6953 L96.624,477.8281 L86.624,487.8281 L20,487.8281 L20,470.6953" fill="#EEEEEE" style="stroke:#000000;stroke-width:1.5;"/><rect fill="none" height="381.7266" style="stroke:#000000;stroke-width:1.5;" width="1082.6597" x="20" y="470.6953"/><text fill="#000000" font-family="sans-serif" font-size="13" font-weight="bold" lengthAdjust="spacing" textLength="31.624" x="35" y="483.7622">loop</text><text fill="#000000" font-family="sans-serif" font-size="11" font-weight="bold" lengthAdjust="spacing" textLength="244.5137" x="111.624" y="482.9058">[until user is done adding components]</text><g class="message" data-participant-1="CLI" data-participant-2="User"><polygon fill="#181818" points="69.9551,504.9609,59.9551,508.9609,69.9551,512.9609,65.9551,508.9609" style="stroke:#181818;stroke-width:1;"/><line style="stroke:#181818;stroke-width:1;stroke-dasharray:2.0,2.0;" x1="63.9551" x2="383.1069" y1="508.9609" y2="508.9609"/><text fill="#000000" font-family="sans-serif" font-size="13" lengthAdjust="spacing" textLength="230.0835" x="75.9551" y="503.895">prompt for component search term</text></g><g class="message" data-participant-1="User" data-participant-2="CLI"><polygon fill="#181818" points="372.1069,534.0938,382.1069,538.0938,372.1069,542.0938,376.1069,538.0938" style="stroke:#181818;stroke-width:1;"/><line style="stroke:#181818;stroke-width:1;" x1="58.9551" x2="378.1069" y1="538.0938" y2="538.0938"/><text fill="#000000" font-family="sans-serif" font-size="13" lengthAdjust="spacing" textLength="117.5142" x="65.9551" y="533.0278">enter search term</text></g><path d="M30,553.0938 L94.4429,553.0938 L94.4429,560.2266 L84.4429,570.2266 L30,570.2266 L30,553.0938" fill="#EEEEEE" style="stroke:#000000;stroke-width:1.5;"/><rect fill="none" height="292.3281" style="stroke:#000000;stroke-width:1.5;" width="1062.6597" x="30" y="553.0938"/><text fill="#000000" font-family="sans-serif" font-size="13" font-weight="bold" lengthAdjust="spacing" textLength="19.4429" x="45" y="566.1606">alt</text><text fill="#000000" font-family="sans-serif" font-size="11" font-weight="bold" lengthAdjust="spacing" textLength="166.375" x="109.4429" y="565.3042">[search term is not empty]</text><g class="message" data-participant-1="CLI" data-participant-2="Controller"><polygon fill="#181818" points="744.5068,587.3594,754.5068,591.3594,744.5068,595.3594,748.5068,591.3594" style="stroke:#181818;stroke-width:1;"/><line style="stroke:#181818;stroke-width:1;" x1="394.1069" x2="750.5068" y1="591.3594" y2="591.3594"/><text fill="#000000" font-family="sans-serif" font-size="13" lengthAdjust="spacing" textLength="169.438" x="401.1069" y="586.2935">searchFoods(searchTerm)</text></g><g class="message" data-participant-1="Controller" data-participant-2="FoodDB"><polygon fill="#181818" points="1008.2241,616.4922,1018.2241,620.4922,1008.2241,624.4922,1012.2241,620.4922" style="stroke:#181818;stroke-width:1;"/><line style="stroke:#181818;stroke-width:1;" x1="766.5068" x2="1014.2241" y1="620.4922" y2="620.4922"/><text fill="#000000" font-family="sans-serif" font-size="13" lengthAdjust="spacing" textLength="169.438" x="773.5068" y="615.4263">searchFoods(searchTerm)</text></g><g class="message" data-participant-1="FoodDB" data-participant-2="Controller"><polygon fill="#181818" points="777.5068,645.625,767.5068,649.625,777.5068,653.625,773.5068,649.625" style="stroke:#181818;stroke-width:1;"/><line style="stroke:#181818;stroke-width:1;stroke-dasharray:2.0,2.0;" x1="771.5068" x2="1024.2241" y1="649.625" y2="649.625"/><text fill="#000000" font-family="sans-serif" font-size="13" lengthAdjust="spacing" textLength="122.3511" x="783.5068" y="644.5591">matchingFoodsList</text></g><g class="message" data-participant-1="Controller" data-participant-2="CLI"><polygon fill="#181818" points="405.1069,674.7578,395.1069,678.7578,405.1069,682.7578,401.1069,678.7578" style="stroke:#181818;stroke-width:1;"/><line style="stroke:#181818;stroke-width:1;stroke-dasharray:2.0,2.0;" x1="399.1069" x2="760.5068" y1="678.7578" y2="678.7578"/><text fill="#000000" font-family="sans-serif" font-size="13" lengthAdjust="spacing" textLength="122.3511" x="411.1069" y="673.6919">matchingFoodsList</text></g><g class="message" data-participant-1="CLI" data-participant-2="User"><polygon fill="#181818" points="69.9551,703.8906,59.9551,707.8906,69.9551,711.8906,65.9551,707.8906" style="stroke:#181818;stroke-width:1;"/><line style="stroke:#181818;stroke-width:1;stroke-dasharray:2.0,2.0;" x1="63.9551" x2="383.1069" y1="707.8906" y2="707.8906"/><text fill="#000000" font-family="sans-serif" font-size="13" lengthAdjust="spacing" textLength="151.1504" x="75.9551" y="702.8247">display matching foods</text></g><g class="message" data-participant-1="User" data-participant-2="CLI"><polygon fill="#181818" points="372.1069,733.0234,382.1069,737.0234,372.1069,741.0234,376.1069,737.0234" style="stroke:#181818;stroke-width:1;"/><line style="stroke:#181818;stroke-width:1;" x1="58.9551" x2="378.1069" y1="737.0234" y2="737.0234"/><text fill="#000000" font-family="sans-serif" font-size="13" lengthAdjust="spacing" textLength="71.4937" x="65.9551" y="731.9575">select food</text></g><g class="message" data-participant-1="CLI" data-participant-2="User"><polygon fill="#181818" points="69.9551,762.1563,59.9551,766.1563,69.9551,770.1563,65.9551,766.1563" style="stroke:#181818;stroke-width:1;"/><line style="stroke:#181818;stroke-width:1;stroke-dasharray:2.0,2.0;" x1="63.9551" x2="383.1069" y1="766.1563" y2="766.1563"/><text fill="#000000" font-family="sans-serif" font-size="13" lengthAdjust="spacing" textLength="128.3877" x="75.9551" y="761.0903">prompt for servings</text></g><g class="message" data-participant-1="User" data-participant-2="CLI"><polygon fill="#181818" points="372.1069,791.2891,382.1069,795.2891,372.1069,799.2891,376.1069,795.2891" style="stroke:#181818;stroke-width:1;"/><line style="stroke:#181818;stroke-width:1;" x1="58.9551" x2="378.1069" y1="795.2891" y2="795.2891"/><text fill="#000000" font-family="sans-serif" font-size="13" lengthAdjust="spacing" textLength="93.4946" x="65.9551" y="790.2231">enter servings</text></g><g class="message" data-participant-1="CLI" data-participant-2="CLI"><line style="stroke:#181818;stroke-width:1;" x1="394.1069" x2="436.1069" y1="824.4219" y2="824.4219"/><line style="stroke:#181818;stroke-width:1;" x1="436.1069" x2="436.1069" y1="824.4219" y2="837.4219"/><line style="stroke:#181818;stroke-width:1;" x1="395.1069" x2="436.1069" y1="837.4219" y2="837.4219"/><polygon fill="#181818" points="405.1069,833.4219,395.1069,837.4219,405.1069,841.4219,401.1069,837.4219" style="stroke:#181818;stroke-width:1;"/><text fill="#000000" font-family="sans-serif" font-size="13" lengthAdjust="spacing" textLength="338.3999" x="401.1069" y="819.356">add selected food and servings to components map</text></g><g class="message" data-participant-1="CLI" data-participant-2="Controller"><polygon fill="#181818" points="744.5068,876.5547,754.5068,880.5547,744.5068,884.5547,748.5068,880.5547" style="stroke:#181818;stroke-width:1;"/><line style="stroke:#181818;stroke-width:1;" x1="394.1069" x2="750.5068" y1="880.5547" y2="880.5547"/><text fill="#000000" font-family="sans-serif" font-size="13" lengthAdjust="spacing" textLength="331.519" x="401.1069" y="875.4888">addCompositeFood(name, keywords, components)</text></g><g class="message" data-participant-1="Controller" data-participant-2="CompositeFood"><polygon fill="#181818" points="1137.0532,905.6875,1147.0532,909.6875,1137.0532,913.6875,1141.0532,909.6875" style="stroke:#181818;stroke-width:1;"/><line style="stroke:#181818;stroke-width:1;" x1="766.5068" x2="1143.0532" y1="909.6875" y2="909.6875"/><text fill="#000000" font-family="sans-serif" font-size="13" lengthAdjust="spacing" textLength="159.0024" x="773.5068" y="904.6216">create(name, keywords)</text></g><path d="M658.856,924.6875 L735.48,924.6875 L735.48,931.8203 L725.48,941.8203 L658.856,941.8203 L658.856,924.6875" fill="#EEEEEE" style="stroke:#000000;stroke-width:1.5;"/><rect fill="none" height="88.3984" style="stroke:#000000;stroke-width:1.5;" width="737.064" x="658.856" y="924.6875"/><text fill="#000000" font-family="sans-serif" font-size="13" font-weight="bold" lengthAdjust="spacing" textLength="31.624" x="673.856" y="937.7544">loop</text><text fill="#000000" font-family="sans-serif" font-size="11" font-weight="bold" lengthAdjust="spacing" textLength="259.8159" x="750.48" y="936.8979">[for each component in components map]</text><g class="message" data-participant-1="Controller" data-participant-2="CompositeFood"><polygon fill="#181818" points="1137.0532,958.9531,1147.0532,962.9531,1137.0532,966.9531,1141.0532,962.9531" style="stroke:#181818;stroke-width:1;"/><line style="stroke:#181818;stroke-width:1;" x1="766.5068" x2="1143.0532" y1="962.9531" y2="962.9531"/><text fill="#000000" font-family="sans-serif" font-size="13" lengthAdjust="spacing" textLength="201.7729" x="773.5068" y="957.8872">addComponent(food, servings)</text></g><g class="message" data-participant-1="CompositeFood" data-participant-2="CompositeFood"><line style="stroke:#181818;stroke-width:1;" x1="1159.0532" x2="1201.0532" y1="992.0859" y2="992.0859"/><line style="stroke:#181818;stroke-width:1;" x1="1201.0532" x2="1201.0532" y1="992.0859" y2="1005.0859"/><line style="stroke:#181818;stroke-width:1;" x1="1160.0532" x2="1201.0532" y1="1005.0859" y2="1005.0859"/><polygon fill="#181818" points="1170.0532,1001.0859,1160.0532,1005.0859,1170.0532,1009.0859,1166.0532,1005.0859" style="stroke:#181818;stroke-width:1;"/><text fill="#000000" font-family="sans-serif" font-size="13" lengthAdjust="spacing" textLength="207.8667" x="1166.0532" y="987.02">components.put(food, servings)</text></g><g class="message" data-participant-1="CompositeFood" data-participant-2="Controller"><polygon fill="#181818" points="777.5068,1037.2188,767.5068,1041.2188,777.5068,1045.2188,773.5068,1041.2188" style="stroke:#181818;stroke-width:1;"/><line style="stroke:#181818;stroke-width:1;stroke-dasharray:2.0,2.0;" x1="771.5068" x2="1153.0532" y1="1041.2188" y2="1041.2188"/><text fill="#000000" font-family="sans-serif" font-size="13" lengthAdjust="spacing" textLength="99.0869" x="783.5068" y="1036.1528">compositeFood</text></g><g class="message" data-participant-1="Controller" data-participant-2="FoodDB"><polygon fill="#181818" points="1008.2241,1066.3516,1018.2241,1070.3516,1008.2241,1074.3516,1012.2241,1070.3516" style="stroke:#181818;stroke-width:1;"/><line style="stroke:#181818;stroke-width:1;" x1="766.5068" x2="1014.2241" y1="1070.3516" y2="1070.3516"/><text fill="#000000" font-family="sans-serif" font-size="13" lengthAdjust="spacing" textLength="234.7173" x="773.5068" y="1065.2856">addCompositeFood(compositeFood)</text></g><g class="message" data-participant-1="FoodDB" data-participant-2="Controller"><polygon fill="#181818" points="777.5068,1095.4844,767.5068,1099.4844,777.5068,1103.4844,773.5068,1099.4844" style="stroke:#181818;stroke-width:1;"/><line style="stroke:#181818;stroke-width:1;stroke-dasharray:2.0,2.0;" x1="771.5068" x2="1024.2241" y1="1099.4844" y2="1099.4844"/><text fill="#000000" font-family="sans-serif" font-size="13" lengthAdjust="spacing" textLength="50.8511" x="783.5068" y="1094.4185">success</text></g><g class="message" data-participant-1="Controller" data-participant-2="CLI"><polygon fill="#181818" points="405.1069,1124.6172,395.1069,1128.6172,405.1069,1132.6172,401.1069,1128.6172" style="stroke:#181818;stroke-width:1;"/><line style="stroke:#181818;stroke-width:1;stroke-dasharray:2.0,2.0;" x1="399.1069" x2="760.5068" y1="1128.6172" y2="1128.6172"/><text fill="#000000" font-family="sans-serif" font-size="13" lengthAdjust="spacing" textLength="50.8511" x="411.1069" y="1123.5513">success</text></g><g class="message" data-participant-1="CLI" data-participant-2="User"><polygon fill="#181818" points="69.9551,1153.75,59.9551,1157.75,69.9551,1161.75,65.9551,1157.75" style="stroke:#181818;stroke-width:1;"/><line style="stroke:#181818;stroke-width:1;stroke-dasharray:2.0,2.0;" x1="63.9551" x2="383.1069" y1="1157.75" y2="1157.75"/><text fill="#000000" font-family="sans-serif" font-size="13" lengthAdjust="spacing" textLength="301.1519" x="75.9551" y="1152.6841">display "Composite food created successfully"</text></g><g class="message" data-participant-1="CLI" data-participant-2="User"><polygon fill="#181818" points="69.9551,1189.8828,59.9551,1193.8828,69.9551,1197.8828,65.9551,1193.8828" style="stroke:#181818;stroke-width:1;"/><line style="stroke:#181818;stroke-width:1;stroke-dasharray:2.0,2.0;" x1="63.9551" x2="388.1069" y1="1193.8828" y2="1193.8828"/><text fill="#000000" font-family="sans-serif" font-size="13" lengthAdjust="spacing" textLength="135.332" x="75.9551" y="1188.8169">return to main menu</text></g><!--SRC=[bLRHRjiW57tdAr1UcaZ9FY2g8hMT9bMAjeTr7y3Wfa75O05kbx_VnTW4R9nrUOWTSy-vznxEDM7S6qj_ER2aPTPBBbkcFLqzCMMiX1VB-1lOf-FpYZ97yNepp6XlZL9WOtJwMOA-6IE-Ciz-CmTzOF_WSS9icjOuwI4i3dJPapbZOY8aj4DtXr3kdd8Bp4C1Ncy8urw-u_E-9O9VT8U00DpJrcAmfoSKveJHLBC6IaxG7lB5I738EjxJL_0Xr-FbEqQiGrYUzIhDzJOmH2d-WHxqYfU-y3pnZzPBevcw3-i78c2AopEE7Pa1r3ULOx9A2LC-DiqKYYek5Fv8vnsX-2ab5DArYbtewY42FgG_Kt-MhjThWbyHK0vYe33Wz9sFAnNYR6_UuF9Xh8ZfAziphjCrDqt3TWxGCzYIsFI8A_c0mbMi8g6azeOUiOhxdzvA_NguekxeWn2K1qjfpEMeCgRjLy8DxRINYdQX8cnOO0nbGY151kcZRxQNOga3PZdA1xP9i4g_jR1q4xOk2mY5QOCoOxPB2ieLoGmLSS4yRXtlNv1YKy1gVYbegox_B-R1lVdQmWGqpFCpwjqJ7qSZZP_vG2mLEkhxQRw5vkS2pmPbJD5FWIi0nLOxKC3Z5DvWpMo4lz-HzmRbw9vANDKP0OD-7ae1CRmIj4WS52Sdcuw6jOa8TAnxl985ps62yfKTtXlRD9tRZ3_QPMaFoDnz1V5uG4mIp4ZpioVnzkCUL4OBdBE9bNgf_vkLZ4q7s3gekasIRZA635Dh9oN-qdPrcbByac-o3tpMU67tgYhrMP_jQ44zqJiRp8KPTntdu1nPdcYoDCuBqAfnwgTQQYHwFpf8ZCIdJgaB7cgeykIVXGNVMHt6es7eaGPqLvorn-U_]--></g></svg>