<svg xmlns="http://www.w3.org/2000/svg" xmlns:xlink="http://www.w3.org/1999/xlink" contentStyleType="text/css" data-diagram-type="SEQUENCE" height="1211px" preserveAspectRatio="none" style="width:1587px;height:1211px;background:#FFFFFF;" version="1.1" viewBox="0 0 1587 1211" width="1587px" zoomAndPan="magnify"><defs/><g><g><title>CalorieTrackerCLI</title><rect fill="#FFFFFF" height="999.9219" style="stroke:#181818;stroke-width:1;" width="10" x="365.8462" y="112.4297"/></g><g><title>CalorieTrackerController</title><rect fill="#FFFFFF" height="29.1328" style="stroke:#181818;stroke-width:1;" width="10" x="774.2437" y="199.8281"/></g><g><title>CalorieTrackerController</title><rect fill="#FFFFFF" height="87.3984" style="stroke:#181818;stroke-width:1;" width="10" x="774.2437" y="258.0938"/></g><g><title>CalorieTrackerController</title><rect fill="#FFFFFF" height="361.4609" style="stroke:#181818;stroke-width:1;" width="10" x="774.2437" y="374.625"/></g><g><title>CalorieTrackerController</title><rect fill="#FFFFFF" height="87.3984" style="stroke:#181818;stroke-width:1;" width="10" x="774.2437" y="765.2188"/></g><g><title>DailyLog</title><rect fill="#FFFFFF" height="29.1328" style="stroke:#181818;stroke-width:1;" width="10" x="946.5547" y="287.2266"/></g><g><title>DailyLog</title><rect fill="#FFFFFF" height="303.1953" style="stroke:#181818;stroke-width:1;" width="10" x="946.5547" y="403.7578"/></g><g><title>FoodEntry</title><rect fill="#FFFFFF" height="129.5313" style="stroke:#181818;stroke-width:1;" width="10" x="1120.5967" y="499.1563"/></g><g><title>Food</title><rect fill="#FFFFFF" height="29.1328" style="stroke:#181818;stroke-width:1;" width="10" x="1407.9443" y="528.2891"/></g><g><title>CalorieCalculator</title><rect fill="#FFFFFF" height="29.1328" style="stroke:#181818;stroke-width:1;" width="10" x="1509.0605" y="794.3516"/></g><rect fill="none" height="175.7969" style="stroke:#000000;stroke-width:1.5;" width="542.7627" x="904.2168" y="460.8906"/><rect fill="none" height="174.4688" style="stroke:#000000;stroke-width:1.5;" width="572.5044" x="10" y="909.75"/><g><title>User</title><rect fill="#000000" fill-opacity="0.00000" height="1049.0547" width="8" x="34.9551" y="81.2969"/><line style="stroke:#181818;stroke-width:0.5;stroke-dasharray:5.0,5.0;" x1="38" x2="38" y1="81.2969" y2="1130.3516"/></g><g><title>CalorieTrackerCLI</title><rect fill="#000000" fill-opacity="0.00000" height="1049.0547" width="8" x="366.8462" y="81.2969"/><line style="stroke:#181818;stroke-width:0.5;stroke-dasharray:5.0,5.0;" x1="369.9297" x2="369.9297" y1="81.2969" y2="1130.3516"/></g><g><title>CalorieTrackerController</title><rect fill="#000000" fill-opacity="0.00000" height="1049.0547" width="8" x="775.2437" y="81.2969"/><line style="stroke:#181818;stroke-width:0.5;stroke-dasharray:5.0,5.0;" x1="778.5928" x2="778.5928" y1="81.2969" y2="1130.3516"/></g><g><title>DailyLog</title><rect fill="#000000" fill-opacity="0.00000" height="1049.0547" width="8" x="947.5547" y="81.2969"/><line style="stroke:#181818;stroke-width:0.5;stroke-dasharray:5.0,5.0;" x1="951.2168" x2="951.2168" y1="81.2969" y2="1130.3516"/></g><g><title>FoodEntry</title><rect fill="#000000" fill-opacity="0.00000" height="1049.0547" width="8" x="1121.5967" y="81.2969"/><line style="stroke:#181818;stroke-width:0.5;stroke-dasharray:5.0,5.0;" x1="1124.937" x2="1124.937" y1="81.2969" y2="1130.3516"/></g><g><title>Food</title><rect fill="#000000" fill-opacity="0.00000" height="1049.0547" width="8" x="1408.9443" y="81.2969"/><line style="stroke:#181818;stroke-width:0.5;stroke-dasharray:5.0,5.0;" x1="1412.9092" x2="1412.9092" y1="81.2969" y2="1130.3516"/></g><g><title>CalorieCalculator</title><rect fill="#000000" fill-opacity="0.00000" height="1049.0547" width="8" x="1510.0605" y="81.2969"/><line style="stroke:#181818;stroke-width:0.5;stroke-dasharray:5.0,5.0;" x1="1513.9795" x2="1513.9795" y1="81.2969" y2="1130.3516"/></g><g class="participant participant-head" data-participant="User"><text fill="#000000" font-family="sans-serif" font-size="14" lengthAdjust="spacing" textLength="31.9102" x="20" y="77.9951">User</text><ellipse cx="38.9551" cy="13.5" fill="#E2E2F0" rx="8" ry="8" style="stroke:#181818;stroke-width:0.5;"/><path d="M38.9551,21.5 L38.9551,48.5 M25.9551,29.5 L51.9551,29.5 M38.9551,48.5 L25.9551,63.5 M38.9551,48.5 L51.9551,63.5" fill="none" style="stroke:#181818;stroke-width:0.5;"/></g><g class="participant participant-tail" data-participant="User"><text fill="#000000" font-family="sans-serif" font-size="14" lengthAdjust="spacing" textLength="31.9102" x="20" y="1142.3467">User</text><ellipse cx="38.9551" cy="1154.1484" fill="#E2E2F0" rx="8" ry="8" style="stroke:#181818;stroke-width:0.5;"/><path d="M38.9551,1162.1484 L38.9551,1189.1484 M25.9551,1170.1484 L51.9551,1170.1484 M38.9551,1189.1484 L25.9551,1204.1484 M38.9551,1189.1484 L51.9551,1204.1484" fill="none" style="stroke:#181818;stroke-width:0.5;"/></g><g class="participant participant-head" data-participant="CLI"><rect fill="#E2E2F0" height="30.2969" rx="2.5" ry="2.5" style="stroke:#181818;stroke-width:0.5;" width="137.833" x="301.9297" y="50"/><text fill="#000000" font-family="sans-serif" font-size="14" lengthAdjust="spacing" textLength="123.833" x="308.9297" y="69.9951">CalorieTrackerCLI</text></g><g class="participant participant-tail" data-participant="CLI"><rect fill="#E2E2F0" height="30.2969" rx="2.5" ry="2.5" style="stroke:#181818;stroke-width:0.5;" width="137.833" x="301.9297" y="1129.3516"/><text fill="#000000" font-family="sans-serif" font-size="14" lengthAdjust="spacing" textLength="123.833" x="308.9297" y="1149.3467">CalorieTrackerCLI</text></g><g class="participant participant-head" data-participant="Controller"><rect fill="#E2E2F0" height="30.2969" rx="2.5" ry="2.5" style="stroke:#181818;stroke-width:0.5;" width="185.3018" x="686.5928" y="50"/><text fill="#000000" font-family="sans-serif" font-size="14" lengthAdjust="spacing" textLength="171.3018" x="693.5928" y="69.9951">CalorieTrackerController</text></g><g class="participant participant-tail" data-participant="Controller"><rect fill="#E2E2F0" height="30.2969" rx="2.5" ry="2.5" style="stroke:#181818;stroke-width:0.5;" width="185.3018" x="686.5928" y="1129.3516"/><text fill="#000000" font-family="sans-serif" font-size="14" lengthAdjust="spacing" textLength="171.3018" x="693.5928" y="1149.3467">CalorieTrackerController</text></g><g class="participant participant-head" data-participant="DailyLog"><rect fill="#E2E2F0" height="30.2969" rx="2.5" ry="2.5" style="stroke:#181818;stroke-width:0.5;" width="74.6758" x="914.2168" y="50"/><text fill="#000000" font-family="sans-serif" font-size="14" lengthAdjust="spacing" textLength="60.6758" x="921.2168" y="69.9951">DailyLog</text></g><g class="participant participant-tail" data-participant="DailyLog"><rect fill="#E2E2F0" height="30.2969" rx="2.5" ry="2.5" style="stroke:#181818;stroke-width:0.5;" width="74.6758" x="914.2168" y="1129.3516"/><text fill="#000000" font-family="sans-serif" font-size="14" lengthAdjust="spacing" textLength="60.6758" x="921.2168" y="1149.3467">DailyLog</text></g><g class="participant participant-head" data-participant="FoodEntry"><rect fill="#E2E2F0" height="30.2969" rx="2.5" ry="2.5" style="stroke:#181818;stroke-width:0.5;" width="85.3193" x="1082.937" y="50"/><text fill="#000000" font-family="sans-serif" font-size="14" lengthAdjust="spacing" textLength="71.3193" x="1089.937" y="69.9951">FoodEntry</text></g><g class="participant participant-tail" data-participant="FoodEntry"><rect fill="#E2E2F0" height="30.2969" rx="2.5" ry="2.5" style="stroke:#181818;stroke-width:0.5;" width="85.3193" x="1082.937" y="1129.3516"/><text fill="#000000" font-family="sans-serif" font-size="14" lengthAdjust="spacing" textLength="71.3193" x="1089.937" y="1149.3467">FoodEntry</text></g><g class="participant participant-head" data-participant="Food"><rect fill="#E2E2F0" height="30.2969" rx="2.5" ry="2.5" style="stroke:#181818;stroke-width:0.5;" width="48.0703" x="1388.9092" y="50"/><text fill="#000000" font-family="sans-serif" font-size="14" lengthAdjust="spacing" textLength="34.0703" x="1395.9092" y="69.9951">Food</text></g><g class="participant participant-tail" data-participant="Food"><rect fill="#E2E2F0" height="30.2969" rx="2.5" ry="2.5" style="stroke:#181818;stroke-width:0.5;" width="48.0703" x="1388.9092" y="1129.3516"/><text fill="#000000" font-family="sans-serif" font-size="14" lengthAdjust="spacing" textLength="34.0703" x="1395.9092" y="1149.3467">Food</text></g><g class="participant participant-head" data-participant="Calculator"><rect fill="#E2E2F0" height="30.2969" rx="2.5" ry="2.5" style="stroke:#181818;stroke-width:0.5;" width="134.1621" x="1446.9795" y="50"/><text fill="#000000" font-family="sans-serif" font-size="14" lengthAdjust="spacing" textLength="120.1621" x="1453.9795" y="69.9951">CalorieCalculator</text></g><g class="participant participant-tail" data-participant="Calculator"><rect fill="#E2E2F0" height="30.2969" rx="2.5" ry="2.5" style="stroke:#181818;stroke-width:0.5;" width="134.1621" x="1446.9795" y="1129.3516"/><text fill="#000000" font-family="sans-serif" font-size="14" lengthAdjust="spacing" textLength="120.1621" x="1453.9795" y="1149.3467">CalorieCalculator</text></g><g><title>CalorieTrackerCLI</title><rect fill="#FFFFFF" height="999.9219" style="stroke:#181818;stroke-width:1;" width="10" x="365.8462" y="112.4297"/></g><g><title>CalorieTrackerController</title><rect fill="#FFFFFF" height="29.1328" style="stroke:#181818;stroke-width:1;" width="10" x="774.2437" y="199.8281"/></g><g><title>CalorieTrackerController</title><rect fill="#FFFFFF" height="87.3984" style="stroke:#181818;stroke-width:1;" width="10" x="774.2437" y="258.0938"/></g><g><title>CalorieTrackerController</title><rect fill="#FFFFFF" height="361.4609" style="stroke:#181818;stroke-width:1;" width="10" x="774.2437" y="374.625"/></g><g><title>CalorieTrackerController</title><rect fill="#FFFFFF" height="87.3984" style="stroke:#181818;stroke-width:1;" width="10" x="774.2437" y="765.2188"/></g><g><title>DailyLog</title><rect fill="#FFFFFF" height="29.1328" style="stroke:#181818;stroke-width:1;" width="10" x="946.5547" y="287.2266"/></g><g><title>DailyLog</title><rect fill="#FFFFFF" height="303.1953" style="stroke:#181818;stroke-width:1;" width="10" x="946.5547" y="403.7578"/></g><g><title>FoodEntry</title><rect fill="#FFFFFF" height="129.5313" style="stroke:#181818;stroke-width:1;" width="10" x="1120.5967" y="499.1563"/></g><g><title>Food</title><rect fill="#FFFFFF" height="29.1328" style="stroke:#181818;stroke-width:1;" width="10" x="1407.9443" y="528.2891"/></g><g><title>CalorieCalculator</title><rect fill="#FFFFFF" height="29.1328" style="stroke:#181818;stroke-width:1;" width="10" x="1509.0605" y="794.3516"/></g><g class="message" data-participant-1="User" data-participant-2="CLI"><polygon fill="#181818" points="353.8462,108.4297,363.8462,112.4297,353.8462,116.4297,357.8462,112.4297" style="stroke:#181818;stroke-width:1;"/><line style="stroke:#181818;stroke-width:1;" x1="38.9551" x2="359.8462" y1="112.4297" y2="112.4297"/><text fill="#000000" font-family="sans-serif" font-size="13" lengthAdjust="spacing" textLength="171.3994" x="45.9551" y="107.3638">viewNutritionalSummary()</text></g><g class="message" data-participant-1="CLI" data-participant-2="User"><polygon fill="#181818" points="49.9551,137.5625,39.9551,141.5625,49.9551,145.5625,45.9551,141.5625" style="stroke:#181818;stroke-width:1;"/><line style="stroke:#181818;stroke-width:1;stroke-dasharray:2.0,2.0;" x1="43.9551" x2="364.8462" y1="141.5625" y2="141.5625"/><text fill="#000000" font-family="sans-serif" font-size="13" lengthAdjust="spacing" textLength="103.0161" x="55.9551" y="136.4966">prompt for date</text></g><g class="message" data-participant-1="User" data-participant-2="CLI"><polygon fill="#181818" points="353.8462,166.6953,363.8462,170.6953,353.8462,174.6953,357.8462,170.6953" style="stroke:#181818;stroke-width:1;"/><line style="stroke:#181818;stroke-width:1;" x1="38.9551" x2="359.8462" y1="170.6953" y2="170.6953"/><text fill="#000000" font-family="sans-serif" font-size="13" lengthAdjust="spacing" textLength="174.3828" x="45.9551" y="165.6294">enter date (or use current)</text></g><g class="message" data-participant-1="CLI" data-participant-2="Controller"><polygon fill="#181818" points="762.2437,195.8281,772.2437,199.8281,762.2437,203.8281,766.2437,199.8281" style="stroke:#181818;stroke-width:1;"/><line style="stroke:#181818;stroke-width:1;" x1="375.8462" x2="768.2437" y1="199.8281" y2="199.8281"/><text fill="#000000" font-family="sans-serif" font-size="13" lengthAdjust="spacing" textLength="139.7373" x="382.8462" y="194.7622">setCurrentDate(date)</text></g><g class="message" data-participant-1="Controller" data-participant-2="CLI"><polygon fill="#181818" points="386.8462,224.9609,376.8462,228.9609,386.8462,232.9609,382.8462,228.9609" style="stroke:#181818;stroke-width:1;"/><line style="stroke:#181818;stroke-width:1;stroke-dasharray:2.0,2.0;" x1="380.8462" x2="778.2437" y1="228.9609" y2="228.9609"/><text fill="#000000" font-family="sans-serif" font-size="13" lengthAdjust="spacing" textLength="50.8511" x="392.8462" y="223.895">success</text></g><g class="message" data-participant-1="CLI" data-participant-2="Controller"><polygon fill="#181818" points="762.2437,254.0938,772.2437,258.0938,762.2437,262.0938,766.2437,258.0938" style="stroke:#181818;stroke-width:1;"/><line style="stroke:#181818;stroke-width:1;" x1="375.8462" x2="768.2437" y1="258.0938" y2="258.0938"/><text fill="#000000" font-family="sans-serif" font-size="13" lengthAdjust="spacing" textLength="129.9492" x="382.8462" y="253.0278">getCurrentDayLog()</text></g><g class="message" data-participant-1="Controller" data-participant-2="DailyLog"><polygon fill="#181818" points="934.5547,283.2266,944.5547,287.2266,934.5547,291.2266,938.5547,287.2266" style="stroke:#181818;stroke-width:1;"/><line style="stroke:#181818;stroke-width:1;" x1="784.2437" x2="940.5547" y1="287.2266" y2="287.2266"/><text fill="#000000" font-family="sans-serif" font-size="13" lengthAdjust="spacing" textLength="143.311" x="791.2437" y="282.1606">getOrCreateLog(date)</text></g><g class="message" data-participant-1="DailyLog" data-participant-2="Controller"><polygon fill="#181818" points="795.2437,312.3594,785.2437,316.3594,795.2437,320.3594,791.2437,316.3594" style="stroke:#181818;stroke-width:1;"/><line style="stroke:#181818;stroke-width:1;stroke-dasharray:2.0,2.0;" x1="789.2437" x2="950.5547" y1="316.3594" y2="316.3594"/><text fill="#000000" font-family="sans-serif" font-size="13" lengthAdjust="spacing" textLength="54.5835" x="801.2437" y="311.2935">dailyLog</text></g><g class="message" data-participant-1="Controller" data-participant-2="CLI"><polygon fill="#181818" points="386.8462,341.4922,376.8462,345.4922,386.8462,349.4922,382.8462,345.4922" style="stroke:#181818;stroke-width:1;"/><line style="stroke:#181818;stroke-width:1;stroke-dasharray:2.0,2.0;" x1="380.8462" x2="778.2437" y1="345.4922" y2="345.4922"/><text fill="#000000" font-family="sans-serif" font-size="13" lengthAdjust="spacing" textLength="54.5835" x="392.8462" y="340.4263">dailyLog</text></g><g class="message" data-participant-1="CLI" data-participant-2="Controller"><polygon fill="#181818" points="762.2437,370.625,772.2437,374.625,762.2437,378.625,766.2437,374.625" style="stroke:#181818;stroke-width:1;"/><line style="stroke:#181818;stroke-width:1;" x1="375.8462" x2="768.2437" y1="374.625" y2="374.625"/><text fill="#000000" font-family="sans-serif" font-size="13" lengthAdjust="spacing" textLength="158.8374" x="382.8462" y="369.5591">getCurrentDayCalories()</text></g><g class="message" data-participant-1="Controller" data-participant-2="DailyLog"><polygon fill="#181818" points="934.5547,399.7578,944.5547,403.7578,934.5547,407.7578,938.5547,403.7578" style="stroke:#181818;stroke-width:1;"/><line style="stroke:#181818;stroke-width:1;" x1="784.2437" x2="940.5547" y1="403.7578" y2="403.7578"/><text fill="#000000" font-family="sans-serif" font-size="13" lengthAdjust="spacing" textLength="116.397" x="791.2437" y="398.6919">getTotalCalories()</text></g><g class="message" data-participant-1="DailyLog" data-participant-2="DailyLog"><line style="stroke:#181818;stroke-width:1;" x1="956.5547" x2="998.5547" y1="432.8906" y2="432.8906"/><line style="stroke:#181818;stroke-width:1;" x1="998.5547" x2="998.5547" y1="432.8906" y2="445.8906"/><line style="stroke:#181818;stroke-width:1;" x1="957.5547" x2="998.5547" y1="445.8906" y2="445.8906"/><polygon fill="#181818" points="967.5547,441.8906,957.5547,445.8906,967.5547,449.8906,963.5547,445.8906" style="stroke:#181818;stroke-width:1;"/><text fill="#000000" font-family="sans-serif" font-size="13" lengthAdjust="spacing" textLength="105.1807" x="963.5547" y="427.8247">entries.stream()</text></g><path d="M904.2168,460.8906 L980.8408,460.8906 L980.8408,468.0234 L970.8408,478.0234 L904.2168,478.0234 L904.2168,460.8906" fill="#EEEEEE" style="stroke:#000000;stroke-width:1.5;"/><rect fill="none" height="175.7969" style="stroke:#000000;stroke-width:1.5;" width="542.7627" x="904.2168" y="460.8906"/><text fill="#000000" font-family="sans-serif" font-size="13" font-weight="bold" lengthAdjust="spacing" textLength="31.624" x="919.2168" y="473.9575">loop</text><text fill="#000000" font-family="sans-serif" font-size="11" font-weight="bold" lengthAdjust="spacing" textLength="128.4175" x="995.8408" y="473.1011">[for each FoodEntry]</text><g class="message" data-participant-1="DailyLog" data-participant-2="FoodEntry"><polygon fill="#181818" points="1108.5967,495.1563,1118.5967,499.1563,1108.5967,503.1563,1112.5967,499.1563" style="stroke:#181818;stroke-width:1;"/><line style="stroke:#181818;stroke-width:1;" x1="956.5547" x2="1114.5967" y1="499.1563" y2="499.1563"/><text fill="#000000" font-family="sans-serif" font-size="13" lengthAdjust="spacing" textLength="116.397" x="963.5547" y="494.0903">getTotalCalories()</text></g><g class="message" data-participant-1="FoodEntry" data-participant-2="Food"><polygon fill="#181818" points="1395.9443,524.2891,1405.9443,528.2891,1395.9443,532.2891,1399.9443,528.2891" style="stroke:#181818;stroke-width:1;"/><line style="stroke:#181818;stroke-width:1;" x1="1130.5967" x2="1401.9443" y1="528.2891" y2="528.2891"/><text fill="#000000" font-family="sans-serif" font-size="13" lengthAdjust="spacing" textLength="154.4004" x="1137.5967" y="523.2231">getCaloriesPerServing()</text></g><g class="message" data-participant-1="Food" data-participant-2="FoodEntry"><polygon fill="#181818" points="1141.5967,553.4219,1131.5967,557.4219,1141.5967,561.4219,1137.5967,557.4219" style="stroke:#181818;stroke-width:1;"/><line style="stroke:#181818;stroke-width:1;stroke-dasharray:2.0,2.0;" x1="1135.5967" x2="1411.9443" y1="557.4219" y2="557.4219"/><text fill="#000000" font-family="sans-serif" font-size="13" lengthAdjust="spacing" textLength="120.98" x="1147.5967" y="552.356">caloriesPerServing</text></g><g class="message" data-participant-1="FoodEntry" data-participant-2="FoodEntry"><line style="stroke:#181818;stroke-width:1;" x1="1130.5967" x2="1172.5967" y1="586.5547" y2="586.5547"/><line style="stroke:#181818;stroke-width:1;" x1="1172.5967" x2="1172.5967" y1="586.5547" y2="599.5547"/><line style="stroke:#181818;stroke-width:1;" x1="1131.5967" x2="1172.5967" y1="599.5547" y2="599.5547"/><polygon fill="#181818" points="1141.5967,595.5547,1131.5967,599.5547,1141.5967,603.5547,1137.5967,599.5547" style="stroke:#181818;stroke-width:1;"/><text fill="#000000" font-family="sans-serif" font-size="13" lengthAdjust="spacing" textLength="253.3477" x="1137.5967" y="581.4888">calculate caloriesPerServing * servings</text></g><g class="message" data-participant-1="FoodEntry" data-participant-2="DailyLog"><polygon fill="#181818" points="967.5547,624.6875,957.5547,628.6875,967.5547,632.6875,963.5547,628.6875" style="stroke:#181818;stroke-width:1;"/><line style="stroke:#181818;stroke-width:1;stroke-dasharray:2.0,2.0;" x1="961.5547" x2="1124.5967" y1="628.6875" y2="628.6875"/><text fill="#000000" font-family="sans-serif" font-size="13" lengthAdjust="spacing" textLength="137.4268" x="973.5547" y="623.6216">totalCaloriesForEntry</text></g><g class="message" data-participant-1="DailyLog" data-participant-2="DailyLog"><line style="stroke:#181818;stroke-width:1;" x1="956.5547" x2="998.5547" y1="664.8203" y2="664.8203"/><line style="stroke:#181818;stroke-width:1;" x1="998.5547" x2="998.5547" y1="664.8203" y2="677.8203"/><line style="stroke:#181818;stroke-width:1;" x1="957.5547" x2="998.5547" y1="677.8203" y2="677.8203"/><polygon fill="#181818" points="967.5547,673.8203,957.5547,677.8203,967.5547,681.8203,963.5547,677.8203" style="stroke:#181818;stroke-width:1;"/><text fill="#000000" font-family="sans-serif" font-size="13" lengthAdjust="spacing" textLength="140.042" x="963.5547" y="659.7544">sum all entry calories</text></g><g class="message" data-participant-1="DailyLog" data-participant-2="Controller"><polygon fill="#181818" points="795.2437,702.9531,785.2437,706.9531,795.2437,710.9531,791.2437,706.9531" style="stroke:#181818;stroke-width:1;"/><line style="stroke:#181818;stroke-width:1;stroke-dasharray:2.0,2.0;" x1="789.2437" x2="950.5547" y1="706.9531" y2="706.9531"/><text fill="#000000" font-family="sans-serif" font-size="13" lengthAdjust="spacing" textLength="82.0625" x="801.2437" y="701.8872">totalCalories</text></g><g class="message" data-participant-1="Controller" data-participant-2="CLI"><polygon fill="#181818" points="386.8462,732.0859,376.8462,736.0859,386.8462,740.0859,382.8462,736.0859" style="stroke:#181818;stroke-width:1;"/><line style="stroke:#181818;stroke-width:1;stroke-dasharray:2.0,2.0;" x1="380.8462" x2="778.2437" y1="736.0859" y2="736.0859"/><text fill="#000000" font-family="sans-serif" font-size="13" lengthAdjust="spacing" textLength="82.0625" x="392.8462" y="731.02">totalCalories</text></g><g class="message" data-participant-1="CLI" data-participant-2="Controller"><polygon fill="#181818" points="762.2437,761.2188,772.2437,765.2188,762.2437,769.2188,766.2437,765.2188" style="stroke:#181818;stroke-width:1;"/><line style="stroke:#181818;stroke-width:1;" x1="375.8462" x2="768.2437" y1="765.2188" y2="765.2188"/><text fill="#000000" font-family="sans-serif" font-size="13" lengthAdjust="spacing" textLength="126.4263" x="382.8462" y="760.1528">getTargetCalories()</text></g><g class="message" data-participant-1="Controller" data-participant-2="Calculator"><polygon fill="#181818" points="1497.0605,790.3516,1507.0605,794.3516,1497.0605,798.3516,1501.0605,794.3516" style="stroke:#181818;stroke-width:1;"/><line style="stroke:#181818;stroke-width:1;" x1="784.2437" x2="1503.0605" y1="794.3516" y2="794.3516"/><text fill="#000000" font-family="sans-serif" font-size="13" lengthAdjust="spacing" textLength="229.7979" x="791.2437" y="789.2856">calculateTargetCalories(user, date)</text></g><g class="message" data-participant-1="Calculator" data-participant-2="Controller"><polygon fill="#181818" points="795.2437,819.4844,785.2437,823.4844,795.2437,827.4844,791.2437,823.4844" style="stroke:#181818;stroke-width:1;"/><line style="stroke:#181818;stroke-width:1;stroke-dasharray:2.0,2.0;" x1="789.2437" x2="1513.0605" y1="823.4844" y2="823.4844"/><text fill="#000000" font-family="sans-serif" font-size="13" lengthAdjust="spacing" textLength="92.0918" x="801.2437" y="818.4185">targetCalories</text></g><g class="message" data-participant-1="Controller" data-participant-2="CLI"><polygon fill="#181818" points="386.8462,848.6172,376.8462,852.6172,386.8462,856.6172,382.8462,852.6172" style="stroke:#181818;stroke-width:1;"/><line style="stroke:#181818;stroke-width:1;stroke-dasharray:2.0,2.0;" x1="380.8462" x2="778.2437" y1="852.6172" y2="852.6172"/><text fill="#000000" font-family="sans-serif" font-size="13" lengthAdjust="spacing" textLength="92.0918" x="392.8462" y="847.5513">targetCalories</text></g><g class="message" data-participant-1="CLI" data-participant-2="CLI"><line style="stroke:#181818;stroke-width:1;" x1="375.8462" x2="417.8462" y1="881.75" y2="881.75"/><line style="stroke:#181818;stroke-width:1;" x1="417.8462" x2="417.8462" y1="881.75" y2="894.75"/><line style="stroke:#181818;stroke-width:1;" x1="376.8462" x2="417.8462" y1="894.75" y2="894.75"/><polygon fill="#181818" points="386.8462,890.75,376.8462,894.75,386.8462,898.75,382.8462,894.75" style="stroke:#181818;stroke-width:1;"/><text fill="#000000" font-family="sans-serif" font-size="13" lengthAdjust="spacing" textLength="374.3975" x="382.8462" y="876.6841">Calculate difference = targetCalories - consumedCalories</text></g><path d="M10,909.75 L74.4429,909.75 L74.4429,916.8828 L64.4429,926.8828 L10,926.8828 L10,909.75" fill="#EEEEEE" style="stroke:#000000;stroke-width:1.5;"/><rect fill="none" height="174.4688" style="stroke:#000000;stroke-width:1.5;" width="572.5044" x="10" y="909.75"/><text fill="#000000" font-family="sans-serif" font-size="13" font-weight="bold" lengthAdjust="spacing" textLength="19.4429" x="25" y="922.8169">alt</text><text fill="#000000" font-family="sans-serif" font-size="11" font-weight="bold" lengthAdjust="spacing" textLength="107.1748" x="89.4429" y="921.9604">[difference &gt;= 0]</text><g class="message" data-participant-1="CLI" data-participant-2="User"><polygon fill="#181818" points="49.9551,944.0156,39.9551,948.0156,49.9551,952.0156,45.9551,948.0156" style="stroke:#181818;stroke-width:1;"/><line style="stroke:#181818;stroke-width:1;stroke-dasharray:2.0,2.0;" x1="43.9551" x2="364.8462" y1="948.0156" y2="948.0156"/><text fill="#000000" font-family="sans-serif" font-size="13" lengthAdjust="spacing" textLength="260.0508" x="55.9551" y="942.9497">display "You have X calories remaining"</text></g><g class="message" data-participant-1="CLI" data-participant-2="CLI"><line style="stroke:#181818;stroke-width:1;" x1="375.8462" x2="417.8462" y1="977.1484" y2="977.1484"/><line style="stroke:#181818;stroke-width:1;" x1="417.8462" x2="417.8462" y1="977.1484" y2="990.1484"/><line style="stroke:#181818;stroke-width:1;" x1="376.8462" x2="417.8462" y1="990.1484" y2="990.1484"/><polygon fill="#181818" points="386.8462,986.1484,376.8462,990.1484,386.8462,994.1484,382.8462,990.1484" style="stroke:#181818;stroke-width:1;"/><text fill="#000000" font-family="sans-serif" font-size="13" lengthAdjust="spacing" textLength="177.6582" x="382.8462" y="972.0825">highlight message in green</text></g><line style="stroke:#000000;stroke-width:1;stroke-dasharray:2.0,2.0;" x1="10" x2="582.5044" y1="999.1484" y2="999.1484"/><text fill="#000000" font-family="sans-serif" font-size="11" font-weight="bold" lengthAdjust="spacing" textLength="97.958" x="15" y="1009.3589">[difference &lt; 0]</text><g class="message" data-participant-1="CLI" data-participant-2="User"><polygon fill="#181818" points="49.9551,1030.0859,39.9551,1034.0859,49.9551,1038.0859,45.9551,1034.0859" style="stroke:#181818;stroke-width:1;"/><line style="stroke:#181818;stroke-width:1;stroke-dasharray:2.0,2.0;" x1="43.9551" x2="364.8462" y1="1034.0859" y2="1034.0859"/><text fill="#000000" font-family="sans-serif" font-size="13" lengthAdjust="spacing" textLength="260.7744" x="55.9551" y="1029.02">display "You've exceeded by X calories"</text></g><g class="message" data-participant-1="CLI" data-participant-2="CLI"><line style="stroke:#181818;stroke-width:1;" x1="375.8462" x2="417.8462" y1="1063.2188" y2="1063.2188"/><line style="stroke:#181818;stroke-width:1;" x1="417.8462" x2="417.8462" y1="1063.2188" y2="1076.2188"/><line style="stroke:#181818;stroke-width:1;" x1="376.8462" x2="417.8462" y1="1076.2188" y2="1076.2188"/><polygon fill="#181818" points="386.8462,1072.2188,376.8462,1076.2188,386.8462,1080.2188,382.8462,1076.2188" style="stroke:#181818;stroke-width:1;"/><text fill="#000000" font-family="sans-serif" font-size="13" lengthAdjust="spacing" textLength="161.4209" x="382.8462" y="1058.1528">highlight message in red</text></g><g class="message" data-participant-1="CLI" data-participant-2="User"><polygon fill="#181818" points="49.9551,1108.3516,39.9551,1112.3516,49.9551,1116.3516,45.9551,1112.3516" style="stroke:#181818;stroke-width:1;"/><line style="stroke:#181818;stroke-width:1;stroke-dasharray:2.0,2.0;" x1="43.9551" x2="369.8462" y1="1112.3516" y2="1112.3516"/><text fill="#000000" font-family="sans-serif" font-size="13" lengthAdjust="spacing" textLength="302.8911" x="55.9551" y="1107.2856">display nutritional summary with total calories</text></g><!--SRC=[bLN1Zfim4Btp5QDScgsQgkUecmlRbLQAsagRIktHDHDYrM0qDjdoznrCOWnncjr80HlFU_Dc_312EaFmmo9bZI2df6f4xM2H2sr8uOw4_8EKRvyM82pm_RzXfdPaj4OQeiDq2deGIdTRK_gWysGQycXCyONHdOy9iykWi9xKnJVPQi4b3eB2DClwac6rwKjQmr7XozVMaNBAr48_jrKbg5lUPK8wTHGEVUKPNs35c1wxXePCrJZOS_yA3faoOkrmU0vB3cWjWco9-F7TYMSJzMSD5bq-h3ymPja3u-nZ9yUXb-AJsLPAj3OhC8L8fIkZT7ttbxUJRS9MUVWtoWavl0VFr8OjFGy6fL7wuXmHAGweL8Kfm5jAFFd1lhtEdN52f-11RrHcZEN4FUIZTTodYf7QcCQxXKiuH9u6_iKKOIMPluyE6gOa_X8UdQc6Jfm8lYCz8nrLNQQe0e5lVAH3Ni1zQBGP0PuMCVBu5n0JZF2UNm8_idEEILzTt917GsFzCpd30jR5jHsoRGL2QxzJNL1qtRMJp4dh9hrx5NRRm3j1qUQzohpZ6HUrUyR3fn5zWFaPCnwEu_2o1nEcIJKHFjM5wy146tf47inIgFqU-KsM2FSp8bY1D3Nl91Q1EnFQnPZDFNpo1fcUtuMoZHOTB7wP5WxYYF0pc008Aw5gDkDYH9vq7LHvqFntKF6XAqe4LKD9Y7M6saxKVhwP-1sdnRyIiS02VdUHX5Sc9Ym6ZwTprEDNhVTx_rc35-KEWoj7qyVxiNtw1m00]--></g></svg>