<svg xmlns="http://www.w3.org/2000/svg" xmlns:xlink="http://www.w3.org/1999/xlink" contentStyleType="text/css" data-diagram-type="SEQUENCE" height="1401px" preserveAspectRatio="none" style="width:1299px;height:1401px;background:#FFFFFF;" version="1.1" viewBox="0 0 1299 1401" width="1299px" zoomAndPan="magnify"><defs/><g><g><title>CalorieTrackerCLI</title><rect fill="#FFFFFF" height="1190.7188" style="stroke:#181818;stroke-width:1;" width="10" x="385.4399" y="112.4297"/></g><g><title>CalorieTrackerController</title><rect fill="#FFFFFF" height="578.0625" style="stroke:#181818;stroke-width:1;" width="10" x="683.5659" y="258.0938"/></g><g><title>FoodDatabase</title><rect fill="#FFFFFF" height="519.7969" style="stroke:#181818;stroke-width:1;" width="10" x="843.6523" y="287.2266"/></g><g><title>Food</title><rect fill="#FFFFFF" height="354.1328" style="stroke:#181818;stroke-width:1;" width="10" x="1032.6069" y="382.625"/></g><rect fill="none" height="297" style="stroke:#000000;stroke-width:1.5;" width="1272.3428" x="20" y="439.7578"/><rect fill="none" height="179.7969" style="stroke:#000000;stroke-width:1.5;" width="1252.3428" x="30" y="549.9609"/><rect fill="none" height="77.3984" style="stroke:#000000;stroke-width:1.5;" width="1031.6421" x="40" y="616.2266"/><rect fill="none" height="17.1328" style="stroke:#000000;stroke-width:1.5;" width="91.9517" x="50" y="669.4922"/><rect fill="none" height="77.3984" style="stroke:#000000;stroke-width:1.5;" width="459.3564" x="20" y="1197.6172"/><rect fill="none" height="46.2656" style="stroke:#000000;stroke-width:1.5;" width="439.3564" x="30" y="1221.75"/><g><title>User</title><rect fill="#000000" fill-opacity="0.00000" height="1239.8516" width="8" x="54.9551" y="81.2969"/><line style="stroke:#181818;stroke-width:0.5;stroke-dasharray:5.0,5.0;" x1="58" x2="58" y1="81.2969" y2="1321.1484"/></g><g><title>CalorieTrackerCLI</title><rect fill="#000000" fill-opacity="0.00000" height="1239.8516" width="8" x="386.4399" y="81.2969"/><line style="stroke:#181818;stroke-width:0.5;stroke-dasharray:5.0,5.0;" x1="389.5234" x2="389.5234" y1="81.2969" y2="1321.1484"/></g><g><title>CalorieTrackerController</title><rect fill="#000000" fill-opacity="0.00000" height="1239.8516" width="8" x="684.5659" y="81.2969"/><line style="stroke:#181818;stroke-width:0.5;stroke-dasharray:5.0,5.0;" x1="687.915" x2="687.915" y1="81.2969" y2="1321.1484"/></g><g><title>FoodDatabase</title><rect fill="#000000" fill-opacity="0.00000" height="1239.8516" width="8" x="844.6523" y="81.2969"/><line style="stroke:#181818;stroke-width:0.5;stroke-dasharray:5.0,5.0;" x1="848.2168" x2="848.2168" y1="81.2969" y2="1321.1484"/></g><g><title>Food</title><rect fill="#000000" fill-opacity="0.00000" height="1239.8516" width="8" x="1033.6069" y="81.2969"/><line style="stroke:#181818;stroke-width:0.5;stroke-dasharray:5.0,5.0;" x1="1037.5718" x2="1037.5718" y1="81.2969" y2="1321.1484"/></g><g class="participant participant-head" data-participant="User"><text fill="#000000" font-family="sans-serif" font-size="14" lengthAdjust="spacing" textLength="31.9102" x="40" y="77.9951">User</text><ellipse cx="58.9551" cy="13.5" fill="#E2E2F0" rx="8" ry="8" style="stroke:#181818;stroke-width:0.5;"/><path d="M58.9551,21.5 L58.9551,48.5 M45.9551,29.5 L71.9551,29.5 M58.9551,48.5 L45.9551,63.5 M58.9551,48.5 L71.9551,63.5" fill="none" style="stroke:#181818;stroke-width:0.5;"/></g><g class="participant participant-tail" data-participant="User"><text fill="#000000" font-family="sans-serif" font-size="14" lengthAdjust="spacing" textLength="31.9102" x="40" y="1333.1436">User</text><ellipse cx="58.9551" cy="1344.9453" fill="#E2E2F0" rx="8" ry="8" style="stroke:#181818;stroke-width:0.5;"/><path d="M58.9551,1352.9453 L58.9551,1379.9453 M45.9551,1360.9453 L71.9551,1360.9453 M58.9551,1379.9453 L45.9551,1394.9453 M58.9551,1379.9453 L71.9551,1394.9453" fill="none" style="stroke:#181818;stroke-width:0.5;"/></g><g class="participant participant-head" data-participant="CLI"><rect fill="#E2E2F0" height="30.2969" rx="2.5" ry="2.5" style="stroke:#181818;stroke-width:0.5;" width="137.833" x="321.5234" y="50"/><text fill="#000000" font-family="sans-serif" font-size="14" lengthAdjust="spacing" textLength="123.833" x="328.5234" y="69.9951">CalorieTrackerCLI</text></g><g class="participant participant-tail" data-participant="CLI"><rect fill="#E2E2F0" height="30.2969" rx="2.5" ry="2.5" style="stroke:#181818;stroke-width:0.5;" width="137.833" x="321.5234" y="1320.1484"/><text fill="#000000" font-family="sans-serif" font-size="14" lengthAdjust="spacing" textLength="123.833" x="328.5234" y="1340.1436">CalorieTrackerCLI</text></g><g class="participant participant-head" data-participant="Controller"><rect fill="#E2E2F0" height="30.2969" rx="2.5" ry="2.5" style="stroke:#181818;stroke-width:0.5;" width="185.3018" x="595.915" y="50"/><text fill="#000000" font-family="sans-serif" font-size="14" lengthAdjust="spacing" textLength="171.3018" x="602.915" y="69.9951">CalorieTrackerController</text></g><g class="participant participant-tail" data-participant="Controller"><rect fill="#E2E2F0" height="30.2969" rx="2.5" ry="2.5" style="stroke:#181818;stroke-width:0.5;" width="185.3018" x="595.915" y="1320.1484"/><text fill="#000000" font-family="sans-serif" font-size="14" lengthAdjust="spacing" textLength="171.3018" x="602.915" y="1340.1436">CalorieTrackerController</text></g><g class="participant participant-head" data-participant="FoodDB"><rect fill="#E2E2F0" height="30.2969" rx="2.5" ry="2.5" style="stroke:#181818;stroke-width:0.5;" width="114.8711" x="791.2168" y="50"/><text fill="#000000" font-family="sans-serif" font-size="14" lengthAdjust="spacing" textLength="100.8711" x="798.2168" y="69.9951">FoodDatabase</text></g><g class="participant participant-tail" data-participant="FoodDB"><rect fill="#E2E2F0" height="30.2969" rx="2.5" ry="2.5" style="stroke:#181818;stroke-width:0.5;" width="114.8711" x="791.2168" y="1320.1484"/><text fill="#000000" font-family="sans-serif" font-size="14" lengthAdjust="spacing" textLength="100.8711" x="798.2168" y="1340.1436">FoodDatabase</text></g><g class="participant participant-head" data-participant="Food"><rect fill="#E2E2F0" height="30.2969" rx="2.5" ry="2.5" style="stroke:#181818;stroke-width:0.5;" width="48.0703" x="1013.5718" y="50"/><text fill="#000000" font-family="sans-serif" font-size="14" lengthAdjust="spacing" textLength="34.0703" x="1020.5718" y="69.9951">Food</text></g><g class="participant participant-tail" data-participant="Food"><rect fill="#E2E2F0" height="30.2969" rx="2.5" ry="2.5" style="stroke:#181818;stroke-width:0.5;" width="48.0703" x="1013.5718" y="1320.1484"/><text fill="#000000" font-family="sans-serif" font-size="14" lengthAdjust="spacing" textLength="34.0703" x="1020.5718" y="1340.1436">Food</text></g><g><title>CalorieTrackerCLI</title><rect fill="#FFFFFF" height="1190.7188" style="stroke:#181818;stroke-width:1;" width="10" x="385.4399" y="112.4297"/></g><g><title>CalorieTrackerController</title><rect fill="#FFFFFF" height="578.0625" style="stroke:#181818;stroke-width:1;" width="10" x="683.5659" y="258.0938"/></g><g><title>FoodDatabase</title><rect fill="#FFFFFF" height="519.7969" style="stroke:#181818;stroke-width:1;" width="10" x="843.6523" y="287.2266"/></g><g><title>Food</title><rect fill="#FFFFFF" height="354.1328" style="stroke:#181818;stroke-width:1;" width="10" x="1032.6069" y="382.625"/></g><g class="message" data-participant-1="User" data-participant-2="CLI"><polygon fill="#181818" points="373.4399,108.4297,383.4399,112.4297,373.4399,116.4297,377.4399,112.4297" style="stroke:#181818;stroke-width:1;"/><line style="stroke:#181818;stroke-width:1;" x1="58.9551" x2="379.4399" y1="112.4297" y2="112.4297"/><text fill="#000000" font-family="sans-serif" font-size="13" lengthAdjust="spacing" textLength="92.022" x="65.9551" y="107.3638">searchFoods()</text></g><g class="message" data-participant-1="CLI" data-participant-2="User"><polygon fill="#181818" points="69.9551,137.5625,59.9551,141.5625,69.9551,145.5625,65.9551,141.5625" style="stroke:#181818;stroke-width:1;"/><line style="stroke:#181818;stroke-width:1;stroke-dasharray:2.0,2.0;" x1="63.9551" x2="384.4399" y1="141.5625" y2="141.5625"/><text fill="#000000" font-family="sans-serif" font-size="13" lengthAdjust="spacing" textLength="145.7739" x="75.9551" y="136.4966">display search options</text></g><g class="message" data-participant-1="User" data-participant-2="CLI"><polygon fill="#181818" points="373.4399,166.6953,383.4399,170.6953,373.4399,174.6953,377.4399,170.6953" style="stroke:#181818;stroke-width:1;"/><line style="stroke:#181818;stroke-width:1;" x1="58.9551" x2="379.4399" y1="170.6953" y2="170.6953"/><text fill="#000000" font-family="sans-serif" font-size="13" lengthAdjust="spacing" textLength="220.5239" x="65.9551" y="165.6294">select "Search by name/keyword"</text></g><g class="message" data-participant-1="CLI" data-participant-2="User"><polygon fill="#181818" points="69.9551,195.8281,59.9551,199.8281,69.9551,203.8281,65.9551,199.8281" style="stroke:#181818;stroke-width:1;"/><line style="stroke:#181818;stroke-width:1;stroke-dasharray:2.0,2.0;" x1="63.9551" x2="384.4399" y1="199.8281" y2="199.8281"/><text fill="#000000" font-family="sans-serif" font-size="13" lengthAdjust="spacing" textLength="152.4072" x="75.9551" y="194.7622">prompt for search term</text></g><g class="message" data-participant-1="User" data-participant-2="CLI"><polygon fill="#181818" points="373.4399,224.9609,383.4399,228.9609,373.4399,232.9609,377.4399,228.9609" style="stroke:#181818;stroke-width:1;"/><line style="stroke:#181818;stroke-width:1;" x1="58.9551" x2="379.4399" y1="228.9609" y2="228.9609"/><text fill="#000000" font-family="sans-serif" font-size="13" lengthAdjust="spacing" textLength="117.5142" x="65.9551" y="223.895">enter search term</text></g><g class="message" data-participant-1="CLI" data-participant-2="Controller"><polygon fill="#181818" points="671.5659,254.0938,681.5659,258.0938,671.5659,262.0938,675.5659,258.0938" style="stroke:#181818;stroke-width:1;"/><line style="stroke:#181818;stroke-width:1;" x1="395.4399" x2="677.5659" y1="258.0938" y2="258.0938"/><text fill="#000000" font-family="sans-serif" font-size="13" lengthAdjust="spacing" textLength="129.5493" x="402.4399" y="253.0278">searchFoods(query)</text></g><g class="message" data-participant-1="Controller" data-participant-2="FoodDB"><polygon fill="#181818" points="831.6523,283.2266,841.6523,287.2266,831.6523,291.2266,835.6523,287.2266" style="stroke:#181818;stroke-width:1;"/><line style="stroke:#181818;stroke-width:1;" x1="693.5659" x2="837.6523" y1="287.2266" y2="287.2266"/><text fill="#000000" font-family="sans-serif" font-size="13" lengthAdjust="spacing" textLength="129.5493" x="700.5659" y="282.1606">searchFoods(query)</text></g><g class="message" data-participant-1="FoodDB" data-participant-2="FoodDB"><line style="stroke:#181818;stroke-width:1;" x1="853.6523" x2="895.6523" y1="316.3594" y2="316.3594"/><line style="stroke:#181818;stroke-width:1;" x1="895.6523" x2="895.6523" y1="316.3594" y2="329.3594"/><line style="stroke:#181818;stroke-width:1;" x1="854.6523" x2="895.6523" y1="329.3594" y2="329.3594"/><polygon fill="#181818" points="864.6523,325.3594,854.6523,329.3594,864.6523,333.3594,860.6523,329.3594" style="stroke:#181818;stroke-width:1;"/><text fill="#000000" font-family="sans-serif" font-size="13" lengthAdjust="spacing" textLength="104.8062" x="860.6523" y="311.2935">stream all foods</text></g><g class="message" data-participant-1="FoodDB" data-participant-2="Food"><polygon fill="#181818" points="1020.6069,378.625,1030.6069,382.625,1020.6069,386.625,1024.6069,382.625" style="stroke:#181818;stroke-width:1;"/><line style="stroke:#181818;stroke-width:1;" x1="853.6523" x2="1026.6069" y1="382.625" y2="382.625"/><text fill="#000000" font-family="sans-serif" font-size="13" lengthAdjust="spacing" textLength="159.9546" x="860.6523" y="377.5591">matchesKeyword(query)</text></g><g class="message" data-participant-1="Food" data-participant-2="Food"><line style="stroke:#181818;stroke-width:1;" x1="1042.6069" x2="1084.6069" y1="411.7578" y2="411.7578"/><line style="stroke:#181818;stroke-width:1;" x1="1084.6069" x2="1084.6069" y1="411.7578" y2="424.7578"/><line style="stroke:#181818;stroke-width:1;" x1="1043.6069" x2="1084.6069" y1="424.7578" y2="424.7578"/><polygon fill="#181818" points="1053.6069,420.7578,1043.6069,424.7578,1053.6069,428.7578,1049.6069,424.7578" style="stroke:#181818;stroke-width:1;"/><text fill="#000000" font-family="sans-serif" font-size="13" lengthAdjust="spacing" textLength="192.2007" x="1049.6069" y="406.6919">check if name contains query</text></g><path d="M20,439.7578 L84.4429,439.7578 L84.4429,446.8906 L74.4429,456.8906 L20,456.8906 L20,439.7578" fill="#EEEEEE" style="stroke:#000000;stroke-width:1.5;"/><rect fill="none" height="297" style="stroke:#000000;stroke-width:1.5;" width="1272.3428" x="20" y="439.7578"/><text fill="#000000" font-family="sans-serif" font-size="13" font-weight="bold" lengthAdjust="spacing" textLength="19.4429" x="35" y="452.8247">alt</text><text fill="#000000" font-family="sans-serif" font-size="11" font-weight="bold" lengthAdjust="spacing" textLength="140.3896" x="99.4429" y="451.9683">[name contains query]</text><g class="message" data-participant-1="Food" data-participant-2="FoodDB"><polygon fill="#181818" points="864.6523,474.0234,854.6523,478.0234,864.6523,482.0234,860.6523,478.0234" style="stroke:#181818;stroke-width:1;"/><line style="stroke:#181818;stroke-width:1;stroke-dasharray:2.0,2.0;" x1="858.6523" x2="1031.6069" y1="478.0234" y2="478.0234"/><text fill="#000000" font-family="sans-serif" font-size="13" lengthAdjust="spacing" textLength="26.6792" x="870.6523" y="472.9575">true</text></g><line style="stroke:#000000;stroke-width:1;stroke-dasharray:2.0,2.0;" x1="20" x2="1292.3428" y1="487.0234" y2="487.0234"/><text fill="#000000" font-family="sans-serif" font-size="11" font-weight="bold" lengthAdjust="spacing" textLength="183.5679" x="25" y="497.2339">[name doesn't contain query]</text><g class="message" data-participant-1="Food" data-participant-2="Food"><line style="stroke:#181818;stroke-width:1;" x1="1042.6069" x2="1084.6069" y1="521.9609" y2="521.9609"/><line style="stroke:#181818;stroke-width:1;" x1="1084.6069" x2="1084.6069" y1="521.9609" y2="534.9609"/><line style="stroke:#181818;stroke-width:1;" x1="1043.6069" x2="1084.6069" y1="534.9609" y2="534.9609"/><polygon fill="#181818" points="1053.6069,530.9609,1043.6069,534.9609,1053.6069,538.9609,1049.6069,534.9609" style="stroke:#181818;stroke-width:1;"/><text fill="#000000" font-family="sans-serif" font-size="13" lengthAdjust="spacing" textLength="104.3682" x="1049.6069" y="516.895">check keywords</text></g><path d="M30,549.9609 L106.624,549.9609 L106.624,557.0938 L96.624,567.0938 L30,567.0938 L30,549.9609" fill="#EEEEEE" style="stroke:#000000;stroke-width:1.5;"/><rect fill="none" height="179.7969" style="stroke:#000000;stroke-width:1.5;" width="1252.3428" x="30" y="549.9609"/><text fill="#000000" font-family="sans-serif" font-size="13" font-weight="bold" lengthAdjust="spacing" textLength="31.624" x="45" y="563.0278">loop</text><text fill="#000000" font-family="sans-serif" font-size="11" font-weight="bold" lengthAdjust="spacing" textLength="117.6807" x="121.624" y="562.1714">[for each keyword]</text><g class="message" data-participant-1="Food" data-participant-2="Food"><line style="stroke:#181818;stroke-width:1;" x1="1042.6069" x2="1084.6069" y1="588.2266" y2="588.2266"/><line style="stroke:#181818;stroke-width:1;" x1="1084.6069" x2="1084.6069" y1="588.2266" y2="601.2266"/><line style="stroke:#181818;stroke-width:1;" x1="1043.6069" x2="1084.6069" y1="601.2266" y2="601.2266"/><polygon fill="#181818" points="1053.6069,597.2266,1043.6069,601.2266,1053.6069,605.2266,1049.6069,601.2266" style="stroke:#181818;stroke-width:1;"/><text fill="#000000" font-family="sans-serif" font-size="13" lengthAdjust="spacing" textLength="210.7358" x="1049.6069" y="583.1606">check if keyword contains query</text></g><path d="M40,616.2266 L104.4429,616.2266 L104.4429,623.3594 L94.4429,633.3594 L40,633.3594 L40,616.2266" fill="#EEEEEE" style="stroke:#000000;stroke-width:1.5;"/><rect fill="none" height="77.3984" style="stroke:#000000;stroke-width:1.5;" width="1031.6421" x="40" y="616.2266"/><text fill="#000000" font-family="sans-serif" font-size="13" font-weight="bold" lengthAdjust="spacing" textLength="19.4429" x="55" y="629.2935">alt</text><text fill="#000000" font-family="sans-serif" font-size="11" font-weight="bold" lengthAdjust="spacing" textLength="159.1777" x="119.4429" y="628.437">[keyword contains query]</text><g class="message" data-participant-1="Food" data-participant-2="FoodDB"><polygon fill="#181818" points="864.6523,650.4922,854.6523,654.4922,864.6523,658.4922,860.6523,654.4922" style="stroke:#181818;stroke-width:1;"/><line style="stroke:#181818;stroke-width:1;stroke-dasharray:2.0,2.0;" x1="858.6523" x2="1031.6069" y1="654.4922" y2="654.4922"/><text fill="#000000" font-family="sans-serif" font-size="13" lengthAdjust="spacing" textLength="26.6792" x="870.6523" y="649.4263">true</text></g><path d="M50,669.4922 L136.9517,669.4922 L136.9517,676.625 L126.9517,686.625 L50,686.625 L50,669.4922" fill="#EEEEEE" style="stroke:#000000;stroke-width:1.5;"/><rect fill="none" height="17.1328" style="stroke:#000000;stroke-width:1.5;" width="91.9517" x="50" y="669.4922"/><text fill="#000000" font-family="sans-serif" font-size="13" font-weight="bold" lengthAdjust="spacing" textLength="41.9517" x="65" y="682.5591">break</text><g class="message" data-participant-1="Food" data-participant-2="FoodDB"><polygon fill="#181818" points="864.6523,717.7578,854.6523,721.7578,864.6523,725.7578,860.6523,721.7578" style="stroke:#181818;stroke-width:1;"/><line style="stroke:#181818;stroke-width:1;stroke-dasharray:2.0,2.0;" x1="858.6523" x2="1031.6069" y1="721.7578" y2="721.7578"/><text fill="#000000" font-family="sans-serif" font-size="13" lengthAdjust="spacing" textLength="37.064" x="870.6523" y="716.6919">result</text></g><g class="message" data-participant-1="FoodDB" data-participant-2="FoodDB"><line style="stroke:#181818;stroke-width:1;" x1="853.6523" x2="895.6523" y1="764.8906" y2="764.8906"/><line style="stroke:#181818;stroke-width:1;" x1="895.6523" x2="895.6523" y1="764.8906" y2="777.8906"/><line style="stroke:#181818;stroke-width:1;" x1="854.6523" x2="895.6523" y1="777.8906" y2="777.8906"/><polygon fill="#181818" points="864.6523,773.8906,854.6523,777.8906,864.6523,781.8906,860.6523,777.8906" style="stroke:#181818;stroke-width:1;"/><text fill="#000000" font-family="sans-serif" font-size="13" lengthAdjust="spacing" textLength="152.4136" x="860.6523" y="759.8247">filter to matching foods</text></g><g class="message" data-participant-1="FoodDB" data-participant-2="Controller"><polygon fill="#181818" points="704.5659,803.0234,694.5659,807.0234,704.5659,811.0234,700.5659,807.0234" style="stroke:#181818;stroke-width:1;"/><line style="stroke:#181818;stroke-width:1;stroke-dasharray:2.0,2.0;" x1="698.5659" x2="847.6523" y1="807.0234" y2="807.0234"/><text fill="#000000" font-family="sans-serif" font-size="13" lengthAdjust="spacing" textLength="122.3511" x="710.5659" y="801.9575">matchingFoodsList</text></g><g class="message" data-participant-1="Controller" data-participant-2="CLI"><polygon fill="#181818" points="406.4399,832.1563,396.4399,836.1563,406.4399,840.1563,402.4399,836.1563" style="stroke:#181818;stroke-width:1;"/><line style="stroke:#181818;stroke-width:1;stroke-dasharray:2.0,2.0;" x1="400.4399" x2="687.5659" y1="836.1563" y2="836.1563"/><text fill="#000000" font-family="sans-serif" font-size="13" lengthAdjust="spacing" textLength="122.3511" x="412.4399" y="831.0903">matchingFoodsList</text></g><g class="message" data-participant-1="CLI" data-participant-2="CLI"><line style="stroke:#181818;stroke-width:1;" x1="395.4399" x2="437.4399" y1="865.2891" y2="865.2891"/><line style="stroke:#181818;stroke-width:1;" x1="437.4399" x2="437.4399" y1="865.2891" y2="878.2891"/><line style="stroke:#181818;stroke-width:1;" x1="396.4399" x2="437.4399" y1="878.2891" y2="878.2891"/><polygon fill="#181818" points="406.4399,874.2891,396.4399,878.2891,406.4399,882.2891,402.4399,878.2891" style="stroke:#181818;stroke-width:1;"/><text fill="#000000" font-family="sans-serif" font-size="13" lengthAdjust="spacing" textLength="264.126" x="402.4399" y="860.2231">separate into basic and composite foods</text></g><g class="message" data-participant-1="CLI" data-participant-2="User"><polygon fill="#181818" points="69.9551,903.4219,59.9551,907.4219,69.9551,911.4219,65.9551,907.4219" style="stroke:#181818;stroke-width:1;"/><line style="stroke:#181818;stroke-width:1;stroke-dasharray:2.0,2.0;" x1="63.9551" x2="384.4399" y1="907.4219" y2="907.4219"/><text fill="#000000" font-family="sans-serif" font-size="13" lengthAdjust="spacing" textLength="230.6929" x="75.9551" y="902.356">display basic foods matching query</text></g><g class="message" data-participant-1="CLI" data-participant-2="User"><polygon fill="#181818" points="69.9551,932.5547,59.9551,936.5547,69.9551,940.5547,65.9551,936.5547" style="stroke:#181818;stroke-width:1;"/><line style="stroke:#181818;stroke-width:1;stroke-dasharray:2.0,2.0;" x1="63.9551" x2="384.4399" y1="936.5547" y2="936.5547"/><text fill="#000000" font-family="sans-serif" font-size="13" lengthAdjust="spacing" textLength="264.3926" x="75.9551" y="931.4888">display composite foods matching query</text></g><g class="message" data-participant-1="User" data-participant-2="CLI"><polygon fill="#181818" points="373.4399,961.6875,383.4399,965.6875,373.4399,969.6875,377.4399,965.6875" style="stroke:#181818;stroke-width:1;"/><line style="stroke:#181818;stroke-width:1;" x1="58.9551" x2="379.4399" y1="965.6875" y2="965.6875"/><text fill="#000000" font-family="sans-serif" font-size="13" lengthAdjust="spacing" textLength="248.1743" x="65.9551" y="960.6216">select "View details of a specific food"</text></g><g class="message" data-participant-1="CLI" data-participant-2="User"><polygon fill="#181818" points="69.9551,990.8203,59.9551,994.8203,69.9551,998.8203,65.9551,994.8203" style="stroke:#181818;stroke-width:1;"/><line style="stroke:#181818;stroke-width:1;stroke-dasharray:2.0,2.0;" x1="63.9551" x2="384.4399" y1="994.8203" y2="994.8203"/><text fill="#000000" font-family="sans-serif" font-size="13" lengthAdjust="spacing" textLength="153.6895" x="75.9551" y="989.7544">prompt for food to view</text></g><g class="message" data-participant-1="User" data-participant-2="CLI"><polygon fill="#181818" points="373.4399,1019.9531,383.4399,1023.9531,373.4399,1027.9531,377.4399,1023.9531" style="stroke:#181818;stroke-width:1;"/><line style="stroke:#181818;stroke-width:1;" x1="58.9551" x2="379.4399" y1="1023.9531" y2="1023.9531"/><text fill="#000000" font-family="sans-serif" font-size="13" lengthAdjust="spacing" textLength="71.4937" x="65.9551" y="1018.8872">select food</text></g><g class="message" data-participant-1="CLI" data-participant-2="CLI"><line style="stroke:#181818;stroke-width:1;" x1="395.4399" x2="437.4399" y1="1053.0859" y2="1053.0859"/><line style="stroke:#181818;stroke-width:1;" x1="437.4399" x2="437.4399" y1="1053.0859" y2="1066.0859"/><line style="stroke:#181818;stroke-width:1;" x1="396.4399" x2="437.4399" y1="1066.0859" y2="1066.0859"/><polygon fill="#181818" points="406.4399,1062.0859,396.4399,1066.0859,406.4399,1070.0859,402.4399,1066.0859" style="stroke:#181818;stroke-width:1;"/><text fill="#000000" font-family="sans-serif" font-size="13" lengthAdjust="spacing" textLength="219.521" x="402.4399" y="1048.02">displayFoodDetails(selectedFood)</text></g><g class="message" data-participant-1="CLI" data-participant-2="User"><polygon fill="#181818" points="69.9551,1091.2188,59.9551,1095.2188,69.9551,1099.2188,65.9551,1095.2188" style="stroke:#181818;stroke-width:1;"/><line style="stroke:#181818;stroke-width:1;stroke-dasharray:2.0,2.0;" x1="63.9551" x2="384.4399" y1="1095.2188" y2="1095.2188"/><text fill="#000000" font-family="sans-serif" font-size="13" lengthAdjust="spacing" textLength="107.4658" x="75.9551" y="1090.1528">show food name</text></g><g class="message" data-participant-1="CLI" data-participant-2="User"><polygon fill="#181818" points="69.9551,1120.3516,59.9551,1124.3516,69.9551,1128.3516,65.9551,1124.3516" style="stroke:#181818;stroke-width:1;"/><line style="stroke:#181818;stroke-width:1;stroke-dasharray:2.0,2.0;" x1="63.9551" x2="384.4399" y1="1124.3516" y2="1124.3516"/><text fill="#000000" font-family="sans-serif" font-size="13" lengthAdjust="spacing" textLength="99.6392" x="75.9551" y="1119.2856">show food type</text></g><g class="message" data-participant-1="CLI" data-participant-2="User"><polygon fill="#181818" points="69.9551,1149.4844,59.9551,1153.4844,69.9551,1157.4844,65.9551,1153.4844" style="stroke:#181818;stroke-width:1;"/><line style="stroke:#181818;stroke-width:1;stroke-dasharray:2.0,2.0;" x1="63.9551" x2="384.4399" y1="1153.4844" y2="1153.4844"/><text fill="#000000" font-family="sans-serif" font-size="13" lengthAdjust="spacing" textLength="165.9087" x="75.9551" y="1148.4185">show calories per serving</text></g><g class="message" data-participant-1="CLI" data-participant-2="User"><polygon fill="#181818" points="69.9551,1178.6172,59.9551,1182.6172,69.9551,1186.6172,65.9551,1182.6172" style="stroke:#181818;stroke-width:1;"/><line style="stroke:#181818;stroke-width:1;stroke-dasharray:2.0,2.0;" x1="63.9551" x2="384.4399" y1="1182.6172" y2="1182.6172"/><text fill="#000000" font-family="sans-serif" font-size="13" lengthAdjust="spacing" textLength="99.9058" x="75.9551" y="1177.5513">show keywords</text></g><path d="M20,1197.6172 L84.4429,1197.6172 L84.4429,1204.75 L74.4429,1214.75 L20,1214.75 L20,1197.6172" fill="#EEEEEE" style="stroke:#000000;stroke-width:1.5;"/><rect fill="none" height="77.3984" style="stroke:#000000;stroke-width:1.5;" width="459.3564" x="20" y="1197.6172"/><text fill="#000000" font-family="sans-serif" font-size="13" font-weight="bold" lengthAdjust="spacing" textLength="19.4429" x="35" y="1210.6841">alt</text><text fill="#000000" font-family="sans-serif" font-size="11" font-weight="bold" lengthAdjust="spacing" textLength="151.8677" x="99.4429" y="1209.8276">[food is CompositeFood]</text><path d="M30,1221.75 L106.624,1221.75 L106.624,1228.8828 L96.624,1238.8828 L30,1238.8828 L30,1221.75" fill="#EEEEEE" style="stroke:#000000;stroke-width:1.5;"/><rect fill="none" height="46.2656" style="stroke:#000000;stroke-width:1.5;" width="439.3564" x="30" y="1221.75"/><text fill="#000000" font-family="sans-serif" font-size="13" font-weight="bold" lengthAdjust="spacing" textLength="31.624" x="45" y="1234.8169">loop</text><text fill="#000000" font-family="sans-serif" font-size="11" font-weight="bold" lengthAdjust="spacing" textLength="134.0679" x="121.624" y="1233.9604">[for each component]</text><g class="message" data-participant-1="CLI" data-participant-2="User"><polygon fill="#181818" points="69.9551,1256.0156,59.9551,1260.0156,69.9551,1264.0156,65.9551,1260.0156" style="stroke:#181818;stroke-width:1;"/><line style="stroke:#181818;stroke-width:1;stroke-dasharray:2.0,2.0;" x1="63.9551" x2="384.4399" y1="1260.0156" y2="1260.0156"/><text fill="#000000" font-family="sans-serif" font-size="13" lengthAdjust="spacing" textLength="302.4849" x="75.9551" y="1254.9497">show component name, servings, and calories</text></g><g class="message" data-participant-1="CLI" data-participant-2="User"><polygon fill="#181818" points="69.9551,1299.1484,59.9551,1303.1484,69.9551,1307.1484,65.9551,1303.1484" style="stroke:#181818;stroke-width:1;"/><line style="stroke:#181818;stroke-width:1;stroke-dasharray:2.0,2.0;" x1="63.9551" x2="389.4399" y1="1303.1484" y2="1303.1484"/><text fill="#000000" font-family="sans-serif" font-size="13" lengthAdjust="spacing" textLength="135.332" x="75.9551" y="1298.0825">return to main menu</text></g><!--SRC=[ZLN9Rjim4BtpAmQ-D04IvEv33arH8AXlQNkdgL5Dc29PahBXl-zmqK955gg39NFUl5dqPiH5C0v-UNJCSXUaa9Rh0BitheoJ-DDnSKRtTdZV0VT0zqsOqS4PfT1bzFYtTlfkJFED1txa7XCm7Npz31gDZCKCuVarPh07Zzo9KpJuXqV6HP0N7Z1bn-W7dWaO7VRGI6yLlnKFC3P8e_sIJQ6WY1yPSxo1vXs-dF5sDQxPBHYjCvqDq5BN2cb0rzMCgEciCcUIrrbBwYh-zkXkyrAcrh7fEJBaNcrxbtwoVA-yWaFU0LUAAY1NfeongHZab6k4WGpOCQ2hTjz3nuCueV-H6pD4ZSWgSZeP2IPtyXLda6rgBmYgYalj8T5a5XNksYQwMJN1zPYig3ncryQWrr_2GB7AK2TKthCVGNLBYdcqRjHLeFVI7qhy3zXsjVFhIE_pN9sYdfATFt_YS-Xx5TWSrs3z9kFvYefQgQB0WycIaFfFKTC0NIXzG2Mr7gGFR14eYdKkys6GDXsh6IdZbUUP5aa4I4qPqfAH0hYE_UwiyQJkakoTLP4T4cGgBx-YTOS5xz9fVTdybdYbTfC0b0VJ0WTlKSYsXDxOEj4SMtyXXbNkDYtCUKTAfgdJEUH3nc8JpnuNmVp9N7EOE59tZU5cLuqYVnCysBG4tOLwiOOR1u_5gKYKCduqIZV7LLBFO-gsfWqx2dijXG6KAdWQil1FMGWbmL7wIUOrZSFGEvqbJckaGzrNsZky_mC0]--></g></svg>