<svg xmlns="http://www.w3.org/2000/svg" xmlns:xlink="http://www.w3.org/1999/xlink" contentStyleType="text/css" data-diagram-type="SEQUENCE" height="911px" preserveAspectRatio="none" style="width:1194px;height:911px;background:#FFFFFF;" version="1.1" viewBox="0 0 1194 911" width="1194px" zoomAndPan="magnify"><defs/><g><g><title>CalorieTrackerCLI</title><rect fill="#FFFFFF" height="699.8594" style="stroke:#181818;stroke-width:1;" width="10" x="362.5771" y="112.4297"/></g><g><title>CalorieTrackerController</title><rect fill="#FFFFFF" height="87.3984" style="stroke:#181818;stroke-width:1;" width="10" x="658.2231" y="199.8281"/></g><g><title>CalorieTrackerController</title><rect fill="#FFFFFF" height="203.9297" style="stroke:#181818;stroke-width:1;" width="10" x="658.2231" y="543.0938"/></g><g><title>FoodDatabase</title><rect fill="#FFFFFF" height="29.1328" style="stroke:#181818;stroke-width:1;" width="10" x="853.2778" y="228.9609"/></g><g><title>FoodDatabase</title><rect fill="#FFFFFF" height="87.3984" style="stroke:#181818;stroke-width:1;" width="10" x="853.2778" y="630.4922"/></g><g><title>BasicFood</title><rect fill="#FFFFFF" height="29.1328" style="stroke:#181818;stroke-width:1;" width="10" x="963.2808" y="572.2266"/></g><g><title>JsonFoodDatabase</title><rect fill="#FFFFFF" height="29.1328" style="stroke:#181818;stroke-width:1;" width="10" x="1100.8213" y="659.625"/></g><rect fill="none" height="481.9297" style="stroke:#000000;stroke-width:1.5;" width="1177.6875" x="10" y="302.2266"/><g><title>User</title><rect fill="#000000" fill-opacity="0.00000" height="748.9922" width="8" x="34.9551" y="81.2969"/><line style="stroke:#181818;stroke-width:0.5;stroke-dasharray:5.0,5.0;" x1="38" x2="38" y1="81.2969" y2="830.2891"/></g><g><title>CalorieTrackerCLI</title><rect fill="#000000" fill-opacity="0.00000" height="748.9922" width="8" x="363.5771" y="81.2969"/><line style="stroke:#181818;stroke-width:0.5;stroke-dasharray:5.0,5.0;" x1="366.6606" x2="366.6606" y1="81.2969" y2="830.2891"/></g><g><title>CalorieTrackerController</title><rect fill="#000000" fill-opacity="0.00000" height="748.9922" width="8" x="659.2231" y="81.2969"/><line style="stroke:#181818;stroke-width:0.5;stroke-dasharray:5.0,5.0;" x1="662.5723" x2="662.5723" y1="81.2969" y2="830.2891"/></g><g><title>FoodDatabase</title><rect fill="#000000" fill-opacity="0.00000" height="748.9922" width="8" x="854.2778" y="81.2969"/><line style="stroke:#181818;stroke-width:0.5;stroke-dasharray:5.0,5.0;" x1="857.8423" x2="857.8423" y1="81.2969" y2="830.2891"/></g><g><title>BasicFood</title><rect fill="#000000" fill-opacity="0.00000" height="748.9922" width="8" x="964.2808" y="81.2969"/><line style="stroke:#181818;stroke-width:0.5;stroke-dasharray:5.0,5.0;" x1="967.7134" x2="967.7134" y1="81.2969" y2="830.2891"/></g><g><title>JsonFoodDatabase</title><rect fill="#000000" fill-opacity="0.00000" height="748.9922" width="8" x="1101.8213" y="81.2969"/><line style="stroke:#181818;stroke-width:0.5;stroke-dasharray:5.0,5.0;" x1="1104.9551" x2="1104.9551" y1="81.2969" y2="830.2891"/></g><g class="participant participant-head" data-participant="User"><text fill="#000000" font-family="sans-serif" font-size="14" lengthAdjust="spacing" textLength="31.9102" x="20" y="77.9951">User</text><ellipse cx="38.9551" cy="13.5" fill="#E2E2F0" rx="8" ry="8" style="stroke:#181818;stroke-width:0.5;"/><path d="M38.9551,21.5 L38.9551,48.5 M25.9551,29.5 L51.9551,29.5 M38.9551,48.5 L25.9551,63.5 M38.9551,48.5 L51.9551,63.5" fill="none" style="stroke:#181818;stroke-width:0.5;"/></g><g class="participant participant-tail" data-participant="User"><text fill="#000000" font-family="sans-serif" font-size="14" lengthAdjust="spacing" textLength="31.9102" x="20" y="842.2842">User</text><ellipse cx="38.9551" cy="854.0859" fill="#E2E2F0" rx="8" ry="8" style="stroke:#181818;stroke-width:0.5;"/><path d="M38.9551,862.0859 L38.9551,889.0859 M25.9551,870.0859 L51.9551,870.0859 M38.9551,889.0859 L25.9551,904.0859 M38.9551,889.0859 L51.9551,904.0859" fill="none" style="stroke:#181818;stroke-width:0.5;"/></g><g class="participant participant-head" data-participant="CLI"><rect fill="#E2E2F0" height="30.2969" rx="2.5" ry="2.5" style="stroke:#181818;stroke-width:0.5;" width="137.833" x="298.6606" y="50"/><text fill="#000000" font-family="sans-serif" font-size="14" lengthAdjust="spacing" textLength="123.833" x="305.6606" y="69.9951">CalorieTrackerCLI</text></g><g class="participant participant-tail" data-participant="CLI"><rect fill="#E2E2F0" height="30.2969" rx="2.5" ry="2.5" style="stroke:#181818;stroke-width:0.5;" width="137.833" x="298.6606" y="829.2891"/><text fill="#000000" font-family="sans-serif" font-size="14" lengthAdjust="spacing" textLength="123.833" x="305.6606" y="849.2842">CalorieTrackerCLI</text></g><g class="participant participant-head" data-participant="Controller"><rect fill="#E2E2F0" height="30.2969" rx="2.5" ry="2.5" style="stroke:#181818;stroke-width:0.5;" width="185.3018" x="570.5723" y="50"/><text fill="#000000" font-family="sans-serif" font-size="14" lengthAdjust="spacing" textLength="171.3018" x="577.5723" y="69.9951">CalorieTrackerController</text></g><g class="participant participant-tail" data-participant="Controller"><rect fill="#E2E2F0" height="30.2969" rx="2.5" ry="2.5" style="stroke:#181818;stroke-width:0.5;" width="185.3018" x="570.5723" y="829.2891"/><text fill="#000000" font-family="sans-serif" font-size="14" lengthAdjust="spacing" textLength="171.3018" x="577.5723" y="849.2842">CalorieTrackerController</text></g><g class="participant participant-head" data-participant="FoodDB"><rect fill="#E2E2F0" height="30.2969" rx="2.5" ry="2.5" style="stroke:#181818;stroke-width:0.5;" width="114.8711" x="800.8423" y="50"/><text fill="#000000" font-family="sans-serif" font-size="14" lengthAdjust="spacing" textLength="100.8711" x="807.8423" y="69.9951">FoodDatabase</text></g><g class="participant participant-tail" data-participant="FoodDB"><rect fill="#E2E2F0" height="30.2969" rx="2.5" ry="2.5" style="stroke:#181818;stroke-width:0.5;" width="114.8711" x="800.8423" y="829.2891"/><text fill="#000000" font-family="sans-serif" font-size="14" lengthAdjust="spacing" textLength="100.8711" x="807.8423" y="849.2842">FoodDatabase</text></g><g class="participant participant-head" data-participant="BasicFood"><rect fill="#E2E2F0" height="30.2969" rx="2.5" ry="2.5" style="stroke:#181818;stroke-width:0.5;" width="85.1348" x="925.7134" y="50"/><text fill="#000000" font-family="sans-serif" font-size="14" lengthAdjust="spacing" textLength="71.1348" x="932.7134" y="69.9951">BasicFood</text></g><g class="participant participant-tail" data-participant="BasicFood"><rect fill="#E2E2F0" height="30.2969" rx="2.5" ry="2.5" style="stroke:#181818;stroke-width:0.5;" width="85.1348" x="925.7134" y="829.2891"/><text fill="#000000" font-family="sans-serif" font-size="14" lengthAdjust="spacing" textLength="71.1348" x="932.7134" y="849.2842">BasicFood</text></g><g class="participant participant-head" data-participant="JsonFoodDatabase"><rect fill="#E2E2F0" height="30.2969" rx="2.5" ry="2.5" style="stroke:#181818;stroke-width:0.5;" width="143.7324" x="1033.9551" y="50"/><text fill="#000000" font-family="sans-serif" font-size="14" lengthAdjust="spacing" textLength="129.7324" x="1040.9551" y="69.9951">JsonFoodDatabase</text></g><g class="participant participant-tail" data-participant="JsonFoodDatabase"><rect fill="#E2E2F0" height="30.2969" rx="2.5" ry="2.5" style="stroke:#181818;stroke-width:0.5;" width="143.7324" x="1033.9551" y="829.2891"/><text fill="#000000" font-family="sans-serif" font-size="14" lengthAdjust="spacing" textLength="129.7324" x="1040.9551" y="849.2842">JsonFoodDatabase</text></g><g><title>CalorieTrackerCLI</title><rect fill="#FFFFFF" height="699.8594" style="stroke:#181818;stroke-width:1;" width="10" x="362.5771" y="112.4297"/></g><g><title>CalorieTrackerController</title><rect fill="#FFFFFF" height="87.3984" style="stroke:#181818;stroke-width:1;" width="10" x="658.2231" y="199.8281"/></g><g><title>CalorieTrackerController</title><rect fill="#FFFFFF" height="203.9297" style="stroke:#181818;stroke-width:1;" width="10" x="658.2231" y="543.0938"/></g><g><title>FoodDatabase</title><rect fill="#FFFFFF" height="29.1328" style="stroke:#181818;stroke-width:1;" width="10" x="853.2778" y="228.9609"/></g><g><title>FoodDatabase</title><rect fill="#FFFFFF" height="87.3984" style="stroke:#181818;stroke-width:1;" width="10" x="853.2778" y="630.4922"/></g><g><title>BasicFood</title><rect fill="#FFFFFF" height="29.1328" style="stroke:#181818;stroke-width:1;" width="10" x="963.2808" y="572.2266"/></g><g><title>JsonFoodDatabase</title><rect fill="#FFFFFF" height="29.1328" style="stroke:#181818;stroke-width:1;" width="10" x="1100.8213" y="659.625"/></g><g class="message" data-participant-1="User" data-participant-2="CLI"><polygon fill="#181818" points="350.5771,108.4297,360.5771,112.4297,350.5771,116.4297,354.5771,112.4297" style="stroke:#181818;stroke-width:1;"/><line style="stroke:#181818;stroke-width:1;" x1="38.9551" x2="356.5771" y1="112.4297" y2="112.4297"/><text fill="#000000" font-family="sans-serif" font-size="13" lengthAdjust="spacing" textLength="100.6675" x="45.9551" y="107.3638">addBasicFood()</text></g><g class="message" data-participant-1="CLI" data-participant-2="User"><polygon fill="#181818" points="49.9551,137.5625,39.9551,141.5625,49.9551,145.5625,45.9551,141.5625" style="stroke:#181818;stroke-width:1;"/><line style="stroke:#181818;stroke-width:1;stroke-dasharray:2.0,2.0;" x1="43.9551" x2="361.5771" y1="141.5625" y2="141.5625"/><text fill="#000000" font-family="sans-serif" font-size="13" lengthAdjust="spacing" textLength="143.438" x="55.9551" y="136.4966">prompt for food name</text></g><g class="message" data-participant-1="User" data-participant-2="CLI"><polygon fill="#181818" points="350.5771,166.6953,360.5771,170.6953,350.5771,174.6953,354.5771,170.6953" style="stroke:#181818;stroke-width:1;"/><line style="stroke:#181818;stroke-width:1;" x1="38.9551" x2="356.5771" y1="170.6953" y2="170.6953"/><text fill="#000000" font-family="sans-serif" font-size="13" lengthAdjust="spacing" textLength="108.5449" x="45.9551" y="165.6294">enter food name</text></g><g class="message" data-participant-1="CLI" data-participant-2="Controller"><polygon fill="#181818" points="646.2231,195.8281,656.2231,199.8281,646.2231,203.8281,650.2231,199.8281" style="stroke:#181818;stroke-width:1;"/><line style="stroke:#181818;stroke-width:1;" x1="372.5771" x2="652.2231" y1="199.8281" y2="199.8281"/><text fill="#000000" font-family="sans-serif" font-size="13" lengthAdjust="spacing" textLength="154.959" x="379.5771" y="194.7622">getFoodByName(name)</text></g><g class="message" data-participant-1="Controller" data-participant-2="FoodDB"><polygon fill="#181818" points="841.2778,224.9609,851.2778,228.9609,841.2778,232.9609,845.2778,228.9609" style="stroke:#181818;stroke-width:1;"/><line style="stroke:#181818;stroke-width:1;" x1="668.2231" x2="847.2778" y1="228.9609" y2="228.9609"/><text fill="#000000" font-family="sans-serif" font-size="13" lengthAdjust="spacing" textLength="154.959" x="675.2231" y="223.895">getFoodByName(name)</text></g><g class="message" data-participant-1="FoodDB" data-participant-2="Controller"><polygon fill="#181818" points="679.2231,254.0938,669.2231,258.0938,679.2231,262.0938,675.2231,258.0938" style="stroke:#181818;stroke-width:1;"/><line style="stroke:#181818;stroke-width:1;stroke-dasharray:2.0,2.0;" x1="673.2231" x2="857.2778" y1="258.0938" y2="258.0938"/><text fill="#000000" font-family="sans-serif" font-size="13" lengthAdjust="spacing" textLength="108.3862" x="685.2231" y="253.0278">Optional&lt;Food&gt;</text></g><g class="message" data-participant-1="Controller" data-participant-2="CLI"><polygon fill="#181818" points="383.5771,283.2266,373.5771,287.2266,383.5771,291.2266,379.5771,287.2266" style="stroke:#181818;stroke-width:1;"/><line style="stroke:#181818;stroke-width:1;stroke-dasharray:2.0,2.0;" x1="377.5771" x2="662.2231" y1="287.2266" y2="287.2266"/><text fill="#000000" font-family="sans-serif" font-size="13" lengthAdjust="spacing" textLength="85.5537" x="389.5771" y="282.1606">optional food</text></g><path d="M10,302.2266 L74.4429,302.2266 L74.4429,309.3594 L64.4429,319.3594 L10,319.3594 L10,302.2266" fill="#EEEEEE" style="stroke:#000000;stroke-width:1.5;"/><rect fill="none" height="481.9297" style="stroke:#000000;stroke-width:1.5;" width="1177.6875" x="10" y="302.2266"/><text fill="#000000" font-family="sans-serif" font-size="13" font-weight="bold" lengthAdjust="spacing" textLength="19.4429" x="25" y="315.2935">alt</text><text fill="#000000" font-family="sans-serif" font-size="11" font-weight="bold" lengthAdjust="spacing" textLength="128.7129" x="89.4429" y="314.437">[food already exists]</text><g class="message" data-participant-1="CLI" data-participant-2="User"><polygon fill="#181818" points="49.9551,336.4922,39.9551,340.4922,49.9551,344.4922,45.9551,340.4922" style="stroke:#181818;stroke-width:1;"/><line style="stroke:#181818;stroke-width:1;stroke-dasharray:2.0,2.0;" x1="43.9551" x2="361.5771" y1="340.4922" y2="340.4922"/><text fill="#000000" font-family="sans-serif" font-size="13" lengthAdjust="spacing" textLength="299.6221" x="55.9551" y="335.4263">display "A food with this name already exists"</text></g><line style="stroke:#000000;stroke-width:1;stroke-dasharray:2.0,2.0;" x1="10" x2="1187.6875" y1="349.4922" y2="349.4922"/><text fill="#000000" font-family="sans-serif" font-size="11" font-weight="bold" lengthAdjust="spacing" textLength="121.5156" x="15" y="359.7026">[food doesn't exist]</text><g class="message" data-participant-1="CLI" data-participant-2="User"><polygon fill="#181818" points="49.9551,380.4297,39.9551,384.4297,49.9551,388.4297,45.9551,384.4297" style="stroke:#181818;stroke-width:1;"/><line style="stroke:#181818;stroke-width:1;stroke-dasharray:2.0,2.0;" x1="43.9551" x2="361.5771" y1="384.4297" y2="384.4297"/><text fill="#000000" font-family="sans-serif" font-size="13" lengthAdjust="spacing" textLength="135.8779" x="55.9551" y="379.3638">prompt for keywords</text></g><g class="message" data-participant-1="User" data-participant-2="CLI"><polygon fill="#181818" points="350.5771,409.5625,360.5771,413.5625,350.5771,417.5625,354.5771,413.5625" style="stroke:#181818;stroke-width:1;"/><line style="stroke:#181818;stroke-width:1;" x1="38.9551" x2="356.5771" y1="413.5625" y2="413.5625"/><text fill="#000000" font-family="sans-serif" font-size="13" lengthAdjust="spacing" textLength="233.9937" x="45.9551" y="408.4966">enter keywords (comma-separated)</text></g><g class="message" data-participant-1="CLI" data-participant-2="CLI"><line style="stroke:#181818;stroke-width:1;" x1="372.5771" x2="414.5771" y1="442.6953" y2="442.6953"/><line style="stroke:#181818;stroke-width:1;" x1="414.5771" x2="414.5771" y1="442.6953" y2="455.6953"/><line style="stroke:#181818;stroke-width:1;" x1="373.5771" x2="414.5771" y1="455.6953" y2="455.6953"/><polygon fill="#181818" points="383.5771,451.6953,373.5771,455.6953,383.5771,459.6953,379.5771,455.6953" style="stroke:#181818;stroke-width:1;"/><text fill="#000000" font-family="sans-serif" font-size="13" lengthAdjust="spacing" textLength="219.1147" x="379.5771" y="437.6294">parse keywords into List&lt;String&gt;</text></g><g class="message" data-participant-1="CLI" data-participant-2="User"><polygon fill="#181818" points="49.9551,480.8281,39.9551,484.8281,49.9551,488.8281,45.9551,484.8281" style="stroke:#181818;stroke-width:1;"/><line style="stroke:#181818;stroke-width:1;stroke-dasharray:2.0,2.0;" x1="43.9551" x2="361.5771" y1="484.8281" y2="484.8281"/><text fill="#000000" font-family="sans-serif" font-size="13" lengthAdjust="spacing" textLength="201.8809" x="55.9551" y="479.7622">prompt for calories per serving</text></g><g class="message" data-participant-1="User" data-participant-2="CLI"><polygon fill="#181818" points="350.5771,509.9609,360.5771,513.9609,350.5771,517.9609,354.5771,513.9609" style="stroke:#181818;stroke-width:1;"/><line style="stroke:#181818;stroke-width:1;" x1="38.9551" x2="356.5771" y1="513.9609" y2="513.9609"/><text fill="#000000" font-family="sans-serif" font-size="13" lengthAdjust="spacing" textLength="89.2163" x="45.9551" y="508.895">enter calories</text></g><g class="message" data-participant-1="CLI" data-participant-2="Controller"><polygon fill="#181818" points="646.2231,539.0938,656.2231,543.0938,646.2231,547.0938,650.2231,543.0938" style="stroke:#181818;stroke-width:1;"/><line style="stroke:#181818;stroke-width:1;" x1="372.5771" x2="652.2231" y1="543.0938" y2="543.0938"/><text fill="#000000" font-family="sans-serif" font-size="13" lengthAdjust="spacing" textLength="266.646" x="379.5771" y="538.0278">addBasicFood(name, keywords, calories)</text></g><g class="message" data-participant-1="Controller" data-participant-2="BasicFood"><polygon fill="#181818" points="951.2808,568.2266,961.2808,572.2266,951.2808,576.2266,955.2808,572.2266" style="stroke:#181818;stroke-width:1;"/><line style="stroke:#181818;stroke-width:1;" x1="668.2231" x2="957.2808" y1="572.2266" y2="572.2266"/><text fill="#000000" font-family="sans-serif" font-size="13" lengthAdjust="spacing" textLength="217.6738" x="675.2231" y="567.1606">create(name, keywords, calories)</text></g><g class="message" data-participant-1="BasicFood" data-participant-2="Controller"><polygon fill="#181818" points="679.2231,597.3594,669.2231,601.3594,679.2231,605.3594,675.2231,601.3594" style="stroke:#181818;stroke-width:1;"/><line style="stroke:#181818;stroke-width:1;stroke-dasharray:2.0,2.0;" x1="673.2231" x2="967.2808" y1="601.3594" y2="601.3594"/><text fill="#000000" font-family="sans-serif" font-size="13" lengthAdjust="spacing" textLength="65.3872" x="685.2231" y="596.2935">basicFood</text></g><g class="message" data-participant-1="Controller" data-participant-2="FoodDB"><polygon fill="#181818" points="841.2778,626.4922,851.2778,630.4922,841.2778,634.4922,845.2778,630.4922" style="stroke:#181818;stroke-width:1;"/><line style="stroke:#181818;stroke-width:1;" x1="668.2231" x2="847.2778" y1="630.4922" y2="630.4922"/><text fill="#000000" font-family="sans-serif" font-size="13" lengthAdjust="spacing" textLength="166.0547" x="675.2231" y="625.4263">addBasicFood(basicFood)</text></g><g class="message" data-participant-1="FoodDB" data-participant-2="JsonFoodDatabase"><polygon fill="#181818" points="1088.8213,655.625,1098.8213,659.625,1088.8213,663.625,1092.8213,659.625" style="stroke:#181818;stroke-width:1;"/><line style="stroke:#181818;stroke-width:1;" x1="863.2778" x2="1094.8213" y1="659.625" y2="659.625"/><text fill="#000000" font-family="sans-serif" font-size="13" lengthAdjust="spacing" textLength="218.5435" x="870.2778" y="654.5591">basicFoods.put(name, basicFood)</text></g><g class="message" data-participant-1="JsonFoodDatabase" data-participant-2="FoodDB"><polygon fill="#181818" points="874.2778,684.7578,864.2778,688.7578,874.2778,692.7578,870.2778,688.7578" style="stroke:#181818;stroke-width:1;"/><line style="stroke:#181818;stroke-width:1;stroke-dasharray:2.0,2.0;" x1="868.2778" x2="1104.8213" y1="688.7578" y2="688.7578"/><text fill="#000000" font-family="sans-serif" font-size="13" lengthAdjust="spacing" textLength="50.8511" x="880.2778" y="683.6919">success</text></g><g class="message" data-participant-1="FoodDB" data-participant-2="Controller"><polygon fill="#181818" points="679.2231,713.8906,669.2231,717.8906,679.2231,721.8906,675.2231,717.8906" style="stroke:#181818;stroke-width:1;"/><line style="stroke:#181818;stroke-width:1;stroke-dasharray:2.0,2.0;" x1="673.2231" x2="857.2778" y1="717.8906" y2="717.8906"/><text fill="#000000" font-family="sans-serif" font-size="13" lengthAdjust="spacing" textLength="50.8511" x="685.2231" y="712.8247">success</text></g><g class="message" data-participant-1="Controller" data-participant-2="CLI"><polygon fill="#181818" points="383.5771,743.0234,373.5771,747.0234,383.5771,751.0234,379.5771,747.0234" style="stroke:#181818;stroke-width:1;"/><line style="stroke:#181818;stroke-width:1;stroke-dasharray:2.0,2.0;" x1="377.5771" x2="662.2231" y1="747.0234" y2="747.0234"/><text fill="#000000" font-family="sans-serif" font-size="13" lengthAdjust="spacing" textLength="50.8511" x="389.5771" y="741.9575">success</text></g><g class="message" data-participant-1="CLI" data-participant-2="User"><polygon fill="#181818" points="49.9551,772.1563,39.9551,776.1563,49.9551,780.1563,45.9551,776.1563" style="stroke:#181818;stroke-width:1;"/><line style="stroke:#181818;stroke-width:1;stroke-dasharray:2.0,2.0;" x1="43.9551" x2="361.5771" y1="776.1563" y2="776.1563"/><text fill="#000000" font-family="sans-serif" font-size="13" lengthAdjust="spacing" textLength="257.1055" x="55.9551" y="771.0903">display "Basic food added successfully"</text></g><g class="message" data-participant-1="CLI" data-participant-2="User"><polygon fill="#181818" points="49.9551,808.2891,39.9551,812.2891,49.9551,816.2891,45.9551,812.2891" style="stroke:#181818;stroke-width:1;"/><line style="stroke:#181818;stroke-width:1;stroke-dasharray:2.0,2.0;" x1="43.9551" x2="366.5771" y1="812.2891" y2="812.2891"/><text fill="#000000" font-family="sans-serif" font-size="13" lengthAdjust="spacing" textLength="135.332" x="55.9551" y="807.2231">return to main menu</text></g><!--SRC=[ZLJRRjim37ttLn1vQGeq-u2WCB1q6D0Xw1wsVG1hCQrGMJ8akft_Vhhu8ZlsjZp4jiXpU8v42Yis5duviaM3bcKb6zGCkmTKnahwQR5w8_jmVjm1El3FlwOPpTOeHJPbZvzpq5TZn1TaV4P7CJ4kdEP99tIo2e6OCNuLHT0AXp9eEG8ACORsjmLMBD-HAGej_1ySV6P07A6nfcuOBjxknMU3nfhcPAIPyc0YA3CVHtWX3hLEtPFFs8UqlEfaU7eD3CdWFz3zBgH759uN_jwmD1hLVOYNXQ0bBgyuE38zA9hACPdI0XKdqwWieUY0Val7hW3_cs-XaAvHsC7kSm9yI7u5VfKkxjS2loj8EKg9mf3JDvmYAyJPsRnHzs6iIELNZcU8mxuoTOq7Hxvjl2Ln6n4JUO_oKQzYH4dD1ivUnVqFjbA_b0lKcgGgDRc3njVtmNUFsv8tv5wBoSvorhLXw-v6WNSZG_ApTc8JzQp9HieZLFuWcFwNUXgki3n-NRNWyomlwwOvmOgqeVzdnaUwXPo-dyFQC0ibV7D6v_T6fiPzQbhklMvnBk4nkboCXWUfhgqgScvfTPLeOsGtA39_LrirDDC6TBK9raSqxdC_rqAG62WlhLATdqqjbXUa9Mwj1ZyVDKeDDUbsTcMS7_y0]--></g></svg>